<?xml version="1.0" encoding="UTF-8"?>
<svg id="Layer_1" data-name="Layer 1" xmlns="http://www.w3.org/2000/svg" xmlns:xlink="http://www.w3.org/1999/xlink" viewBox="0 0 496 695">
  <defs>
    <linearGradient id="linear-gradient" x1="258.64" y1="273.93" x2="439.52" y2="273.93" gradientTransform="matrix(1, 0, 0, 1, 0, 0)" gradientUnits="userSpaceOnUse">
      <stop offset="0" stop-color="#ed1e79"/>
      <stop offset=".51" stop-color="#f87315"/>
      <stop offset="1" stop-color="#ed1c24"/>
    </linearGradient>
    <linearGradient id="linear-gradient-2" x1="261.26" y1="277.52" x2="429.29" y2="277.52" xlink:href="#linear-gradient"/>
    <linearGradient id="linear-gradient-3" x1="263.88" y1="281.12" x2="419.06" y2="281.12" xlink:href="#linear-gradient"/>
    <linearGradient id="linear-gradient-4" x1="266.49" y1="284.72" x2="408.83" y2="284.72" xlink:href="#linear-gradient"/>
    <linearGradient id="linear-gradient-5" x1="269.11" y1="288.31" x2="398.61" y2="288.31" xlink:href="#linear-gradient"/>
    <linearGradient id="linear-gradient-6" x1="271.73" y1="291.91" x2="388.38" y2="291.91" xlink:href="#linear-gradient"/>
    <linearGradient id="linear-gradient-7" x1="274.35" y1="295.51" x2="378.17" y2="295.51" xlink:href="#linear-gradient"/>
    <linearGradient id="linear-gradient-8" x1="276.97" y1="299.11" x2="367.95" y2="299.11" xlink:href="#linear-gradient"/>
    <linearGradient id="linear-gradient-9" x1="278.7" y1="302.74" x2="357.74" y2="302.74" xlink:href="#linear-gradient"/>
    <linearGradient id="linear-gradient-10" x1="274.17" y1="306.35" x2="347.54" y2="306.35" xlink:href="#linear-gradient"/>
    <linearGradient id="linear-gradient-11" x1="269.64" y1="309.95" x2="337.34" y2="309.95" xlink:href="#linear-gradient"/>
    <linearGradient id="linear-gradient-12" x1="265.11" y1="313.54" x2="327.15" y2="313.54" xlink:href="#linear-gradient"/>
    <linearGradient id="linear-gradient-13" x1="260.59" y1="317.14" x2="316.95" y2="317.14" xlink:href="#linear-gradient"/>
    <linearGradient id="linear-gradient-14" x1="256.06" y1="320.74" x2="314.79" y2="320.74" xlink:href="#linear-gradient"/>
    <linearGradient id="linear-gradient-15" x1="251.53" y1="324.33" x2="315.61" y2="324.33" xlink:href="#linear-gradient"/>
    <linearGradient id="linear-gradient-16" x1="247" y1="327.93" x2="316.53" y2="327.93" xlink:href="#linear-gradient"/>
    <linearGradient id="linear-gradient-17" x1="242.47" y1="331.55" x2="317.54" y2="331.55" xlink:href="#linear-gradient"/>
    <linearGradient id="linear-gradient-18" x1="237.95" y1="335.17" x2="318.64" y2="335.17" xlink:href="#linear-gradient"/>
    <linearGradient id="linear-gradient-19" x1="233.42" y1="338.77" x2="319.83" y2="338.77" xlink:href="#linear-gradient"/>
    <linearGradient id="linear-gradient-20" x1="228.89" y1="342.36" x2="321.09" y2="342.36" xlink:href="#linear-gradient"/>
    <linearGradient id="linear-gradient-21" x1="224.36" y1="345.96" x2="322.41" y2="345.96" xlink:href="#linear-gradient"/>
    <linearGradient id="linear-gradient-22" x1="216.99" y1="349.55" x2="323.81" y2="349.55" xlink:href="#linear-gradient"/>
    <linearGradient id="linear-gradient-23" x1="206.97" y1="353.15" x2="325.26" y2="353.15" xlink:href="#linear-gradient"/>
    <linearGradient id="linear-gradient-24" x1="196.93" y1="356.77" x2="326.76" y2="356.77" xlink:href="#linear-gradient"/>
    <linearGradient id="linear-gradient-25" x1="186.89" y1="360.37" x2="328.3" y2="360.37" xlink:href="#linear-gradient"/>
    <linearGradient id="linear-gradient-26" x1="176.84" y1="363.97" x2="329.89" y2="363.97" xlink:href="#linear-gradient"/>
    <linearGradient id="linear-gradient-27" x1="166.78" y1="367.57" x2="331.52" y2="367.57" xlink:href="#linear-gradient"/>
    <linearGradient id="linear-gradient-28" x1="156.72" y1="371.17" x2="333.18" y2="371.17" xlink:href="#linear-gradient"/>
    <linearGradient id="linear-gradient-29" x1="146.64" y1="374.77" x2="334.87" y2="374.77" xlink:href="#linear-gradient"/>
    <linearGradient id="linear-gradient-30" x1="136.56" y1="378.38" x2="336.58" y2="378.38" xlink:href="#linear-gradient"/>
    <linearGradient id="linear-gradient-31" x1="126.46" y1="381.98" x2="338.38" y2="381.98" xlink:href="#linear-gradient"/>
    <linearGradient id="linear-gradient-32" x1="116.37" y1="385.58" x2="340.3" y2="385.58" xlink:href="#linear-gradient"/>
    <linearGradient id="linear-gradient-33" x1="114.18" y1="382.83" x2="330.88" y2="382.83" xlink:href="#linear-gradient"/>
    <linearGradient id="linear-gradient-34" x1="111.99" y1="380.07" x2="321.51" y2="380.07" xlink:href="#linear-gradient"/>
    <linearGradient id="linear-gradient-35" x1="109.81" y1="377.31" x2="312.16" y2="377.31" xlink:href="#linear-gradient"/>
    <linearGradient id="linear-gradient-36" x1="107.62" y1="374.56" x2="302.84" y2="374.56" xlink:href="#linear-gradient"/>
    <linearGradient id="linear-gradient-37" x1="105.43" y1="371.8" x2="293.54" y2="371.8" xlink:href="#linear-gradient"/>
    <linearGradient id="linear-gradient-38" x1="103.24" y1="369.05" x2="284.25" y2="369.05" xlink:href="#linear-gradient"/>
    <linearGradient id="linear-gradient-39" x1="101.06" y1="366.3" x2="274.97" y2="366.3" xlink:href="#linear-gradient"/>
    <linearGradient id="linear-gradient-40" x1="98.87" y1="363.55" x2="265.7" y2="363.55" xlink:href="#linear-gradient"/>
    <linearGradient id="linear-gradient-41" x1="96.68" y1="360.78" x2="256.44" y2="360.78" xlink:href="#linear-gradient"/>
    <linearGradient id="linear-gradient-42" x1="94.49" y1="358.02" x2="247.2" y2="358.02" xlink:href="#linear-gradient"/>
    <linearGradient id="linear-gradient-43" x1="92.3" y1="355.27" x2="237.96" y2="355.27" xlink:href="#linear-gradient"/>
    <linearGradient id="linear-gradient-44" x1="90.11" y1="352.52" x2="228.75" y2="352.52" xlink:href="#linear-gradient"/>
    <linearGradient id="linear-gradient-45" x1="87.92" y1="349.77" x2="219.55" y2="349.77" xlink:href="#linear-gradient"/>
    <linearGradient id="linear-gradient-46" x1="85.73" y1="347.02" x2="210.38" y2="347.02" xlink:href="#linear-gradient"/>
    <linearGradient id="linear-gradient-47" x1="83.54" y1="344.26" x2="201.24" y2="344.26" xlink:href="#linear-gradient"/>
    <linearGradient id="linear-gradient-48" x1="81.35" y1="341.48" x2="192.13" y2="341.48" xlink:href="#linear-gradient"/>
    <linearGradient id="linear-gradient-49" x1="79.15" y1="338.73" x2="183.06" y2="338.73" xlink:href="#linear-gradient"/>
    <linearGradient id="linear-gradient-50" x1="75.6" y1="335.98" x2="174.04" y2="335.98" xlink:href="#linear-gradient"/>
    <linearGradient id="linear-gradient-51" x1="70.04" y1="333.23" x2="165.07" y2="333.23" xlink:href="#linear-gradient"/>
    <linearGradient id="linear-gradient-52" x1="64.48" y1="330.47" x2="156.18" y2="330.47" xlink:href="#linear-gradient"/>
    <linearGradient id="linear-gradient-53" x1="58.92" y1="327.72" x2="147.38" y2="327.72" xlink:href="#linear-gradient"/>
    <linearGradient id="linear-gradient-54" x1="53.36" y1="324.97" x2="138.69" y2="324.97" xlink:href="#linear-gradient"/>
    <linearGradient id="linear-gradient-55" x1="47.8" y1="322.21" x2="130.13" y2="322.21" xlink:href="#linear-gradient"/>
    <linearGradient id="linear-gradient-56" x1="42.23" y1="319.46" x2="121.72" y2="319.46" xlink:href="#linear-gradient"/>
    <linearGradient id="linear-gradient-57" x1="36.67" y1="316.69" x2="113.48" y2="316.69" xlink:href="#linear-gradient"/>
    <linearGradient id="linear-gradient-58" x1="31.1" y1="313.94" x2="105.39" y2="313.94" xlink:href="#linear-gradient"/>
    <linearGradient id="linear-gradient-59" x1="25.54" y1="311.19" x2="97.45" y2="311.19" xlink:href="#linear-gradient"/>
    <linearGradient id="linear-gradient-60" x1="19.97" y1="308.44" x2="89.65" y2="308.44" xlink:href="#linear-gradient"/>
    <linearGradient id="linear-gradient-61" x1="14.4" y1="305.68" x2="82.05" y2="305.68" xlink:href="#linear-gradient"/>
    <linearGradient id="linear-gradient-62" x1="8.84" y1="302.93" x2="74.64" y2="302.93" xlink:href="#linear-gradient"/>
    <linearGradient id="linear-gradient-63" x1="3.27" y1="300.18" x2="69.75" y2="300.18" xlink:href="#linear-gradient"/>
    <linearGradient id="linear-gradient-64" x1="18.98" y1="300.94" x2="82.23" y2="300.94" xlink:href="#linear-gradient"/>
    <linearGradient id="linear-gradient-65" x1="34.68" y1="301.7" x2="94.73" y2="301.7" xlink:href="#linear-gradient"/>
    <linearGradient id="linear-gradient-66" x1="50.38" y1="302.46" x2="107.24" y2="302.46" xlink:href="#linear-gradient"/>
    <linearGradient id="linear-gradient-67" x1="66.08" y1="303.23" x2="119.77" y2="303.23" xlink:href="#linear-gradient"/>
    <linearGradient id="linear-gradient-68" x1="81.77" y1="303.99" x2="132.32" y2="303.99" xlink:href="#linear-gradient"/>
    <linearGradient id="linear-gradient-69" x1="97.46" y1="304.75" x2="144.89" y2="304.75" xlink:href="#linear-gradient"/>
    <linearGradient id="linear-gradient-70" x1="113.13" y1="305.51" x2="157.47" y2="305.51" xlink:href="#linear-gradient"/>
    <linearGradient id="linear-gradient-71" x1="126.12" y1="306.28" x2="170.07" y2="306.28" xlink:href="#linear-gradient"/>
    <linearGradient id="linear-gradient-72" x1="136.95" y1="307.04" x2="182.69" y2="307.04" xlink:href="#linear-gradient"/>
    <linearGradient id="linear-gradient-73" x1="147.77" y1="307.8" x2="195.33" y2="307.8" xlink:href="#linear-gradient"/>
    <linearGradient id="linear-gradient-74" x1="158.6" y1="308.57" x2="207.98" y2="308.57" xlink:href="#linear-gradient"/>
    <linearGradient id="linear-gradient-75" x1="169.43" y1="309.33" x2="220.65" y2="309.33" xlink:href="#linear-gradient"/>
    <linearGradient id="linear-gradient-76" x1="180.26" y1="310.09" x2="233.34" y2="310.09" xlink:href="#linear-gradient"/>
    <linearGradient id="linear-gradient-77" x1="191.09" y1="310.85" x2="246.04" y2="310.85" xlink:href="#linear-gradient"/>
    <linearGradient id="linear-gradient-78" x1="201.92" y1="311.62" x2="258.77" y2="311.62" xlink:href="#linear-gradient"/>
    <linearGradient id="linear-gradient-79" x1="212.75" y1="312.38" x2="271.52" y2="312.38" xlink:href="#linear-gradient"/>
    <linearGradient id="linear-gradient-80" x1="223.58" y1="313.14" x2="284.29" y2="313.14" xlink:href="#linear-gradient"/>
    <linearGradient id="linear-gradient-81" x1="234.41" y1="313.9" x2="297.08" y2="313.9" xlink:href="#linear-gradient"/>
    <linearGradient id="linear-gradient-82" x1="245.24" y1="314.67" x2="309.9" y2="314.67" xlink:href="#linear-gradient"/>
    <linearGradient id="linear-gradient-83" x1="256.07" y1="315.43" x2="322.74" y2="315.43" xlink:href="#linear-gradient"/>
    <linearGradient id="linear-gradient-84" x1="266.9" y1="316.19" x2="335.62" y2="316.19" xlink:href="#linear-gradient"/>
    <linearGradient id="linear-gradient-85" x1="277.73" y1="316.96" x2="351.15" y2="316.96" xlink:href="#linear-gradient"/>
    <linearGradient id="linear-gradient-86" x1="288.56" y1="317.72" x2="366.85" y2="317.72" xlink:href="#linear-gradient"/>
    <linearGradient id="linear-gradient-87" x1="299.39" y1="318.48" x2="382.55" y2="318.48" xlink:href="#linear-gradient"/>
    <linearGradient id="linear-gradient-88" x1="310.22" y1="319.24" x2="398.25" y2="319.24" xlink:href="#linear-gradient"/>
    <linearGradient id="linear-gradient-89" x1="321.05" y1="320.01" x2="413.96" y2="320.01" xlink:href="#linear-gradient"/>
    <linearGradient id="linear-gradient-90" x1="331.88" y1="320.77" x2="429.67" y2="320.77" xlink:href="#linear-gradient"/>
    <linearGradient id="linear-gradient-91" x1="342.71" y1="321.53" x2="445.38" y2="321.53" xlink:href="#linear-gradient"/>
    <linearGradient id="linear-gradient-92" x1="353.54" y1="322.29" x2="461.1" y2="322.29" xlink:href="#linear-gradient"/>
    <linearGradient id="linear-gradient-93" x1="364.37" y1="323.06" x2="476.79" y2="323.06" xlink:href="#linear-gradient"/>
    <linearGradient id="linear-gradient-94" x1="375.19" y1="323.82" x2="492.52" y2="323.82" xlink:href="#linear-gradient"/>
  </defs>
  <g id="Layer_2" data-name="Layer 2">
    <g>
      <path d="M425.1,689.78c1.04-15.24,7.74-29.22,11.15-43.95,3.27-14.15,3.62-29.37,3.75-43.85,.27-29.76-3.98-59.72-15.58-87.27-11.12-26.41-28.15-49.27-46.47-71.06-18.07-21.5-30.63-46.23-39.9-72.64-19.06-54.27-22.57-112.68-22.1-169.75,.48-57.37,5.33-114.61,5.35-171.99,.01-29.87,.09-60.1-6.7-89.36-3.2-13.78-7.65-27.77-14.92-39.99-6.64-11.16-15.53-20.72-25.11-29.4-4.95-4.48-10.08-8.74-15.24-12.98-.74-.61-1.81,.45-1.06,1.06,10.21,8.37,20.38,16.92,29.06,26.91,9.76,11.24,16.39,23.94,21.1,38.02,9.75,29.14,11.18,60.02,11.35,90.49,.31,56.94-3.86,113.7-5.08,170.6-1.2,56.13,.56,113.39,15.89,167.75,7.16,25.38,17.1,50.71,31.65,72.82,7.39,11.22,16.3,21.16,24.68,31.62,9.08,11.35,17.56,23.21,24.82,35.81,15.44,26.79,23.89,56.35,26.09,87.15,1.09,15.28,.81,30.64-.42,45.91-.64,7.88-1.47,15.65-3.5,23.31-1.88,7.12-4.36,14.06-6.44,21.12-1.9,6.44-3.42,12.96-3.87,19.68-.07,.96,1.43,.96,1.5,0h0Z" style="fill: url(#linear-gradient);"/>
      <path d="M260.9-137.07c10.99,9.55,22.01,19.32,30.84,30.96,8.55,11.28,14.03,24.01,17.88,37.57,8.04,28.33,8.4,57.95,7.75,87.18-1.35,59.66-6.46,119.16-7.35,178.82-.85,57.49,2.18,116.16,19.83,171.28,7.61,23.75,17.57,47.11,31.87,67.64,7.96,11.42,17.17,21.9,25.18,33.29,7.75,11.02,14.82,22.54,20.72,34.66,13.1,26.91,19.33,56.26,20.48,86.07,.56,14.5,0,29.03-1.36,43.47s-5.95,27.05-9.68,40.66c-1.63,5.93-2.86,11.94-3.15,18.1-.04,.94,1.42,.94,1.46,0,.66-13.93,6.29-26.92,9.76-40.27,3.48-13.39,4.1-27.57,4.5-41.35,.86-29.12-2.16-58.67-11.88-86.25-8.89-25.22-23.12-48.06-39.43-69.12-8.38-10.82-16.87-21.35-23.78-33.21-6.51-11.18-11.82-22.99-16.51-35.03-21.42-54.95-26.61-114.46-26.67-172.97-.06-60.32,5.46-120.45,7.08-180.72,.78-28.93,1.78-58.17-3.67-86.76-2.58-13.53-6.36-27.32-12.73-39.6-6.06-11.67-14.62-21.74-24.01-30.87-5.19-5.05-10.63-9.84-16.1-14.59-.71-.61-1.74,.41-1.03,1.03h0Z" style="fill: url(#linear-gradient-2);"/>
      <path d="M263.53-132.74c10.64,9.8,21.35,19.82,29.78,31.64,8.01,11.23,13.02,23.77,16.42,37.08,7.36,28.72,6.6,58.51,5.14,87.88-2.95,59.1-8.48,118.11-9.38,177.3s2.39,114.73,19.18,169.46c7.38,24.05,17.04,47.84,30.92,68.92,7.58,11.51,16.41,22.13,24,33.64s13.91,22.63,19.39,34.72c12.23,26.95,17.92,56.17,18.93,85.66,.5,14.69-.07,29.41-1.48,44.03-1.33,13.87-5.91,26.61-9.41,40-1.54,5.88-2.68,11.83-2.83,17.92-.02,.92,1.4,.92,1.42,0,.35-13.86,5.86-26.88,9.26-40.15,3.36-13.13,4.01-26.96,4.46-40.46,.95-28.76-1.69-57.94-10.51-85.44-8.39-26.17-22.3-50.07-38.56-72.08-7.7-10.43-15.34-20.7-21.61-32.08-6.34-11.51-11.5-23.61-16.1-35.9-20.43-54.59-25.68-113.41-25.76-171.29-.08-60.07,5.73-119.89,8.76-179.83,1.45-28.85,3.49-57.98-1.13-86.66-2.15-13.31-5.47-26.87-11.34-39.06s-13.91-22-22.98-31.34c-5.01-5.16-10.28-10.07-15.57-14.94-.67-.62-1.68,.38-1.01,1.01h0Z" style="fill: url(#linear-gradient-3);"/>
      <path d="M266.17-128.41c10.13,9.9,20.34,19.99,28.34,31.75s12.82,25.13,15.84,39.11c6.19,28.6,4.3,57.97,2.03,86.9-4.61,58.69-10.54,117.4-11.39,176.31-.83,56.98,2.78,114.69,19.37,169.51,7.18,23.73,16.43,47.24,29.65,68.3,7.21,11.49,15.58,22.18,22.66,33.77s13.28,23.42,18.39,35.87c10.99,26.76,15.95,55.54,16.74,84.37,.39,14.39-.18,28.81-1.56,43.13s-5.87,26.62-9.2,40.02c-1.45,5.83-2.5,11.72-2.51,17.73,0,.89,1.38,.89,1.38,0,.04-13.78,5.44-26.84,8.75-40.03,3.3-13.12,3.97-26.88,4.44-40.36,.98-28.63-1.45-57.67-9.64-85.22-7.62-25.63-20.27-49.39-35.44-71.32-7.17-10.37-14.4-20.51-20.34-31.66s-11.09-23.51-15.55-35.71c-20.15-55.08-25.76-114.03-25.86-172.32-.11-59.3,5.88-118.24,10.32-177.3,2.18-29.06,5.37-58.37,1.65-87.44-1.71-13.35-4.62-26.94-10.09-39.29-5.28-11.9-13.19-22.27-21.95-31.81-4.84-5.27-9.93-10.3-15.04-15.3-.64-.62-1.62,.35-.98,.98h0Z" style="fill: url(#linear-gradient-4);"/>
      <path d="M268.8-124.08c9.79,10.15,19.69,20.48,27.3,32.42,7.54,11.81,11.8,24.85,14.39,38.55,5.49,29.02,2.47,58.58-.65,87.69-6.19,57.82-12.46,115.77-13.37,173.96-.88,56.64,2.87,113.83,18.73,168.48,6.98,24.05,15.91,47.97,28.68,69.59,7.08,11.99,15.33,23.21,22.16,35.37,6.51,11.58,12.24,23.61,16.83,36.08,9.92,26.9,14.25,55.52,14.78,84.12,.27,14.49-.35,29.03-1.84,43.45-1.4,13.46-6.08,26.06-9.06,39.18-1.22,5.4-2.05,10.86-1.94,16.41,.02,.86,1.36,.87,1.35,0-.28-13.33,4.76-26.1,7.98-38.84,3.22-12.73,4.04-25.89,4.59-38.96,1.19-28.3-.8-56.96-7.91-84.45s-18.57-50.9-33.25-73.62c-6.94-10.75-14.02-21.23-19.77-32.7-5.92-11.82-10.75-24.14-15.12-36.61-19.19-54.7-24.86-112.96-24.98-170.62-.13-59.07,6.04-117.7,11.96-176.4,2.92-29,7.16-58.2,4.27-87.38-1.34-13.54-3.91-27.37-9.26-39.94-4.9-11.53-12.25-21.66-20.42-31.08-4.66-5.38-9.58-10.53-14.52-15.65-.6-.62-1.55,.33-.95,.95h0Z" style="fill: url(#linear-gradient-5);"/>
      <path d="M271.43-119.75c9.44,10.4,19.03,20.98,26.26,33.09,7.14,11.96,10.98,25.09,13.11,38.78,4.55,29.25,.42,58.7-3.53,87.76-7.71,56.64-14.29,113.55-15.29,170.75-.99,56.73,2.82,113.92,18.22,168.76,6.79,24.2,15.38,48.29,27.59,70.34,6.58,11.89,14.27,23.08,20.56,35.16s11.73,24.58,16.02,37.5c8.94,26.95,12.76,55.38,13.12,83.71,.18,14.19-.43,28.43-1.9,42.54s-6.03,26.06-8.83,39.21c-1.14,5.35-1.89,10.75-1.63,16.23,.04,.84,1.35,.84,1.31,0-.6-12.99,4.17-25.6,7.31-38.02s4.16-26.26,4.74-39.57c1.2-27.95-.58-56.2-6.94-83.49-6.11-26.22-16.83-51.17-30.7-74.21-6.61-10.98-13.39-21.7-18.88-33.32-5.74-12.16-10.43-24.78-14.69-37.53-18.42-55.16-24.12-113.38-24.12-171.27,0-58.31,6.34-116.11,13.71-173.87,3.67-28.74,8.88-57.63,6.82-86.72-.96-13.43-3.13-27.2-8.12-39.77-4.54-11.42-11.47-21.51-19.21-30.98-4.49-5.49-9.23-10.76-13.99-16-.57-.62-1.49,.3-.92,.92h0Z" style="fill: url(#linear-gradient-6);"/>
      <path d="M274.06-115.42c9.1,10.66,18.37,21.47,25.22,33.76s10.36,26.24,11.99,40.41c3.31,28.79-1.83,57.48-6.51,85.81-9.24,55.88-16.22,112.19-17.28,168.87-1.05,56.41,2.89,113.13,17.61,167.79,6.61,24.54,14.9,49.01,26.61,71.62,6.2,11.97,13.46,23.31,19.27,35.49,5.77,12.09,10.69,24.58,14.55,37.41,8.2,27.29,11.61,55.89,11.8,84.34,.09,14.3-.49,28.69-2.09,42.91-1.48,13.07-6.03,25.45-8.55,38.31-1.01,5.16-1.63,10.37-1.25,15.63,.06,.81,1.33,.82,1.27,0-.91-12.54,3.55-24.9,6.56-36.9,3.24-12.89,4.28-25.99,4.9-39.24,1.33-28.26-.27-56.79-6.1-84.51-5.46-25.93-15.05-50.93-27.97-74.05-6.27-11.23-12.74-22.18-17.96-33.96-5.54-12.51-10.09-25.44-14.25-38.47-17.57-55.12-23.33-112.93-23.28-170.56,.06-58.2,6.62-115.85,15.6-173.28,4.38-28.03,10.39-56.14,9.29-84.66-.51-13.39-2.27-27.17-6.83-39.82-4.16-11.53-10.79-21.77-18.25-31.43-4.32-5.59-8.88-10.98-13.46-16.35-.53-.62-1.42,.28-.9,.9h0Z" style="fill: url(#linear-gradient-7);"/>
      <path d="M276.69-111.09c8.65,10.79,17.52,21.74,23.98,34.03,6.84,13.03,9.8,27.24,10.93,41.82,2.23,28.8-4.02,57.16-9.5,85.26-10.74,55.14-18.07,110.9-19.14,167.11-1.07,56.23,3.11,112.61,17.37,167.16,6.42,24.55,14.35,49.05,25.41,71.92,5.79,11.99,12.58,23.4,17.87,35.65,5.26,12.18,9.69,24.72,13.12,37.54,7.36,27.52,10.37,56.16,10.4,84.6,.01,13.99-.55,28.09-2.13,42-1.48,13.06-5.97,25.45-8.32,38.34-.93,5.11-1.47,10.27-.95,15.46,.08,.78,1.31,.79,1.23,0-1.24-12.43,3.14-24.85,6.07-36.77,3.11-12.63,4.18-25.4,4.82-38.36,1.4-28.19-.01-56.58-5.15-84.36-4.79-25.91-13.3-51.19-25.37-74.62-6-11.65-12.24-23.01-17.25-35.15s-9.08-24.31-12.9-36.7c-17.1-55.39-23.18-113.14-23.14-170.93,.04-57.75,6.8-114.82,17.16-171.56,5.04-27.57,11.99-55.08,12.1-83.27,.05-13.78-1.23-28.07-5.47-41.24-3.99-12.4-10.89-23.37-18.59-33.78-3.77-5.1-7.73-10.06-11.69-15.01-.49-.62-1.36,.26-.87,.87h0Z" style="fill: url(#linear-gradient-8);"/>
      <path d="M279.23-106.88c8.2,10.89,16.64,21.93,22.73,34.18,6.42,12.9,9.01,26.83,9.8,41.13,1.56,28.35-5.31,56.01-11.54,83.44-12.39,54.53-20.4,109.86-21.7,165.81-1.31,56.39,2.89,112.84,16.56,167.68,6.27,25.15,13.98,50.28,24.6,73.96,5.5,12.27,11.93,24.02,16.78,36.59s8.66,24.99,11.65,37.88c6.43,27.76,9.01,56.45,8.83,84.92-.09,13.88-.63,27.88-2.32,41.67-1.56,12.69-5.93,24.81-8,37.4-.81,4.93-1.23,9.9-.59,14.88,.1,.75,1.29,.76,1.19,0-1.54-11.99,2.55-24.17,5.35-35.69,3.03-12.44,4.24-24.89,4.93-37.65,1.52-28.13,.33-56.42-4.06-84.26-4.13-26.15-11.52-51.95-22.85-75.92-5.63-11.91-11.55-23.53-16.29-35.85-4.73-12.33-8.75-24.93-12.47-37.6-16.24-55.23-22.42-112.47-22.34-169.9s7.09-114.33,19-170.58c5.7-26.93,13.43-53.69,14.55-81.35,.55-13.46-.2-27.43-3.72-40.49-3.39-12.57-9.77-23.74-17.09-34.41-3.84-5.59-7.9-11.02-11.98-16.44-.45-.6-1.49-.01-1.03,.6h0Z" style="fill: url(#linear-gradient-9);"/>
      <path d="M281.87-102.55c7.85,11.14,15.99,22.41,21.72,34.83,6.13,13.29,8.22,27.63,8.48,42.17,.51,28.35-7.47,55.69-14.48,82.87-14,54.27-22.39,109.57-23.61,165.63-1.23,56.53,3.42,112.96,16.98,167.95,6.1,24.76,13.43,49.5,23.31,73.04,5.24,12.49,11.15,24.56,15.46,37.44s7.44,25.1,9.92,37.96c5.37,27.89,7.5,56.49,7.08,84.88-.21,14.19-.58,28.73-2.83,42.77-1.88,11.76-5.79,23.11-7.41,34.91-.63,4.6-.85,9.19-.12,13.79,.12,.73,1.23,.42,1.11-.31-1.89-11.92,2.26-24.32,4.98-35.8,2.91-12.29,4.1-24.58,4.79-37.17,1.53-28.05,.46-56.21-3.33-84.04-3.52-25.89-9.72-51.7-20.07-75.75-5.15-11.97-10.67-23.68-15.08-35.97-4.44-12.37-8.26-24.97-11.84-37.62-15.62-55.26-22.05-112.21-21.99-169.54,.06-57.39,7.31-113.88,20.71-169.65,6.42-26.73,15.11-53.16,17.15-80.73,.99-13.42,.69-27.38-2.41-40.53-2.99-12.69-9.04-24.01-16.06-34.89-3.67-5.7-7.57-11.24-11.47-16.78-.42-.6-1.42-.03-.99,.58h0Z" style="fill: url(#linear-gradient-10);"/>
      <path d="M284.5-98.22c7.62,11.55,15.61,23.25,20.95,36.08,5.43,13.06,7.02,26.98,6.89,41.04-.26,27.94-8.89,54.59-16.64,81.15-15.42,52.82-24.55,106.87-26.12,161.9-1.62,56.59,2.92,113.05,15.73,168.25,6.02,25.93,13.25,51.86,22.81,76.73,4.79,12.45,10.18,24.54,13.94,37.37,3.73,12.72,6.57,25.69,8.67,38.78,4.51,28.05,6.33,56.64,5.77,85.04-.27,13.9-.66,28.11-2.84,41.86-1.84,11.57-5.57,22.78-7.09,34.41-.62,4.72-.81,9.46,.08,14.15,.13,.7,1.21,.41,1.07-.3-2.24-11.79,1.86-24.27,4.49-35.68,2.84-12.27,4.06-24.53,4.75-37.1,1.55-28.16,.58-56.39-2.66-84.4-3.03-26.26-8.23-52.7-18.12-77.3-4.76-11.85-9.61-23.57-13.61-35.72-4.2-12.77-7.9-25.71-11.36-38.69-14.86-55.88-21.21-113.15-20.82-170.92,.38-56.39,8.1-111.83,23-166.22,7.08-25.84,16.31-51.32,19.16-78.11,1.42-13.32,1.53-27.19-1.11-40.37-2.57-12.8-8.32-24.28-15.03-35.38-3.5-5.8-7.23-11.46-10.96-17.12-.39-.6-1.36-.04-.96,.56h0Z" style="fill: url(#linear-gradient-11);"/>
      <path d="M287.14-93.88c7.37,11.97,15.22,24.11,20.16,37.34,4.96,13.3,5.96,27.38,5.31,41.46-1.28,27.5-10.72,53.45-19.15,79.38-16.96,52.15-26.68,105.75-28.36,160.58-1.72,56.47,3.02,112.71,15.39,167.87,5.84,26.05,12.76,52.08,21.58,77.29,4.47,12.78,9.43,25.21,12.69,38.39s5.59,26.59,7.26,40.07c3.44,27.65,4.93,55.64,4.27,83.5-.33,13.97-.67,28.3-3.03,42.1-1.93,11.27-5.42,22.27-6.7,33.66-.51,4.55-.6,9.13,.41,13.62,.15,.67,1.19,.39,1.04-.29-2.54-11.34,1.3-23.62,3.8-34.65,2.74-12.07,4.1-24.01,4.82-36.36,1.67-28.35,.84-56.76-1.75-85.03-2.41-26.27-6.34-52.96-15.32-77.87-4.37-12.14-8.91-24.15-12.67-36.5-3.98-13.07-7.55-26.28-10.9-39.52-14.1-55.75-20.58-112.58-20.12-170.05,.23-28.56,1.98-57.2,6.41-85.44,4.22-26.88,10.6-53.49,18.55-79.52,7.85-25.7,18.03-50.92,21.62-77.7,1.75-13.01,2.26-26.58,.08-39.56-2.16-12.92-7.61-24.54-14-35.86-3.34-5.91-6.9-11.69-10.45-17.46-.36-.59-1.29-.05-.93,.54h0Z" style="fill: url(#linear-gradient-12);"/>
      <path d="M289.77-89.55c7.01,12.22,14.56,24.61,19.11,38.01s5.1,27.62,3.98,41.69c-2.15,27.1-12.27,52.39-21.39,77.72-9.14,25.37-16.66,51.41-21.95,77.86-5.4,27.04-8.02,54.54-8.92,82.08-1.83,56.35,3.11,112.38,15.05,167.48,5.69,26.27,12.32,52.5,20.44,78.12,3.98,12.57,8.34,24.85,11.01,37.79s4.51,26.51,5.79,39.9c2.66,27.88,3.89,56,3.18,84-.36,13.94-.69,28.22-3.04,41.98-1.92,11.27-5.34,22.29-6.45,33.7-.44,4.5-.45,9.04,.69,13.44,.17,.64,1.17,.37,1-.28-2.89-11.19,.9-23.58,3.31-34.53,2.66-12.05,4.04-23.96,4.77-36.28,1.67-28.27,.91-56.58-1.02-84.82-1.78-26.05-4.49-52.71-12.44-77.71-8.02-25.23-15.53-50.4-21.78-76.15-13.58-56-20.33-112.83-19.81-170.45,.26-28.49,2.08-57.07,6.84-85.18,4.52-26.69,11.45-53.05,20.11-78.69,8.55-25.33,19.54-50.06,23.98-76.58,2.17-12.94,3.09-26.46,1.34-39.5-1.75-13.03-6.89-24.8-12.97-36.34-3.17-6.01-6.56-11.91-9.94-17.8-.33-.58-1.23-.06-.89,.52h0Z" style="fill: url(#linear-gradient-13);"/>
      <path d="M292.4-85.21c6.65,12.47,13.9,25.12,18.06,38.69,4.18,13.62,4.24,27.87,2.66,41.91-3.01,26.71-13.77,51.36-23.57,76.11s-18.05,50.58-23.76,76.78c-5.86,26.86-8.67,54.26-9.65,81.71-2.01,56.22,3.07,112.05,14.54,167.1,5.55,26.65,11.95,53.24,19.37,79.43,3.61,12.73,7.47,25.19,9.6,38.28,2.2,13.53,3.44,27.19,4.3,40.86,1.76,27.98,2.74,56.1,1.88,84.13-.42,13.75-.79,27.82-3.2,41.39-1.95,10.99-5.18,21.82-6.05,32.98-.34,4.35-.25,8.72,.99,12.93,.18,.61,1.14,.35,.96-.26-3.17-10.74,.36-22.94,2.64-33.53,2.54-11.83,4.06-23.44,4.82-35.52,1.76-28.23,1.13-56.48-.12-84.72-1.17-26.34-2.56-53.44-9.62-78.99-7.15-25.86-14.3-51.6-20.32-77.77-6.5-28.23-11.82-56.76-15.14-85.54s-4.33-56.37-4.02-84.6c.32-28.41,2.26-56.93,7.43-84.9,4.89-26.48,12.4-52.56,21.8-77.78,9.22-24.74,20.85-48.81,26.07-74.86,2.65-13.25,4.01-27.2,2.44-40.66-1.48-12.65-6.23-24.19-11.8-35.53-3.01-6.12-6.23-12.13-9.43-18.14-.3-.57-1.16-.06-.86,.5h0Z" style="fill: url(#linear-gradient-14);"/>
      <path d="M295.04-80.88c6.29,12.72,13.23,25.62,17.01,39.36,3.79,13.79,3.35,28.1,1.33,42.14-3.82,26.53-15.4,50.74-25.93,75.11-10.39,24.05-19.06,48.89-25.17,74.38-6.39,26.66-9.45,53.93-10.56,81.29-2.3,56.34,2.93,112.26,14.01,167.49,5.35,26.68,11.45,53.27,18.03,79.67,3.4,13.63,6.94,26.97,8.55,40.97,1.47,12.86,2.12,25.79,2.55,38.72,.92,27.93,1.68,55.93,.79,83.87-.45,13.98-.81,28.26-3.24,42.06-1.93,10.98-5.09,21.85-5.8,33.02-.27,4.3-.11,8.64,1.27,12.75,.19,.58,1.12,.33,.92-.25-3.53-10.55-.03-22.91,2.16-33.4,2.47-11.81,4.01-23.41,4.76-35.46,1.78-28.4,1.21-56.8,.56-85.22-.6-26.21-.7-53.23-6.87-78.85-6.31-26.2-12.9-52.3-18.66-78.64-6.18-28.25-11.42-56.74-14.67-85.49s-4.26-56.71-3.84-85.1c.41-28.34,2.54-56.79,8.19-84.6,5.38-26.48,13.62-52.48,23.92-77.44,9.95-24.13,22.13-47.59,27.87-73.22,2.79-12.49,4.42-25.65,3.44-38.44s-5.31-24.46-10.55-36.02c-2.93-6.46-6.1-12.82-9.24-19.18-.27-.55-1.1-.07-.83,.48h0Z" style="fill: url(#linear-gradient-15);"/>
      <path d="M297.67-76.55c6.02,13.17,12.82,26.56,16.14,40.74s2.23,28.38-.3,42.39c-4.75,26.36-17.25,50.14-28.49,74.17-11,23.52-20.2,47.95-26.65,73.11-6.7,26.11-9.9,52.9-11.09,79.8-2.51,56.44,2.93,112.4,13.68,167.78,5.22,26.91,11.07,53.71,16.89,80.5,2.92,13.43,5.86,26.61,6.86,40.36s1.09,26.7,1.1,40.05c.03,28.14,.6,56.3-.43,84.43-.5,13.59-.9,27.43-3.28,40.84-1.9,10.74-4.89,21.42-5.46,32.36-.22,4.34-.01,8.72,1.53,12.82,.21,.55,1.1,.31,.89-.24-3.87-10.28-.45-22.74,1.64-33.06,2.35-11.61,3.95-22.99,4.71-34.83,1.82-28.34,1.34-56.69,1.33-85.06,0-26.56,1.28-53.99-4.09-80.15-5.4-26.3-11.39-52.48-16.87-78.76-5.95-28.51-11.17-57.21-14.39-86.17-3.1-27.91-4.14-56.11-3.68-84.19,.46-28.4,2.71-56.92,8.81-84.7,5.78-26.29,14.65-52.02,25.69-76.55s23.18-46.07,29.72-71.04c3.3-12.61,5.4-25.99,4.82-39.04s-4.61-24.71-9.56-36.48c-2.76-6.57-5.75-13.05-8.71-19.53-.25-.54-1.04-.07-.79,.46h0Z" style="fill: url(#linear-gradient-16);"/>
      <path d="M300.26-72.32c5.51,13.1,11.8,26.42,14.87,40.36s1.67,29.38-1.38,43.78c-5.52,25.99-18.64,49.19-30.53,72.66s-21.53,47.1-28.46,72.02c-7.26,26.14-10.68,53.07-11.96,80.13-2.68,56.7,3.11,112.85,13.6,168.52,5.08,26.97,10.65,53.85,15.66,80.83,2.55,13.72,4.82,27.18,5.17,41.17,.33,13.1-.12,26.2-.51,39.29-.84,28.07-.46,56.16-1.59,84.22-.55,13.65-1,27.5-3.44,40.97-1.9,10.49-4.7,20.99-5.04,31.7-.13,4.19,.18,8.43,1.82,12.33,.22,.51,1.07,.29,.85-.23-4.13-9.83-.95-22.13,1-32.11,2.22-11.36,3.94-22.47,4.71-34.04,1.89-28.3,1.51-56.62,2.1-84.96,.55-26.2,3.14-53.13-.73-79.17s-9.79-52.77-15.02-79c-5.76-28.83-11.08-57.79-14.39-87.01-3.18-27.96-4.28-56.22-3.86-84.35s2.62-56.31,8.87-83.73c5.96-26.17,15.31-51.67,26.91-75.86s24.39-44.96,32.06-69.38c3.95-12.56,6.64-25.91,6.85-39.11,.22-13.85-3.56-26.57-8.52-39.38-2.59-6.68-5.41-13.28-8.19-19.88-.22-.51-1.07-.29-.85,.23h0Z" style="fill: url(#linear-gradient-17);"/>
      <path d="M302.9-67.98c5.15,13.34,11.14,26.92,13.83,41.02,2.85,14.92,.72,30.15-2.92,44.73-6.31,25.23-19.79,47.56-32.15,70.17-12.4,22.69-23,46.43-30.44,71.22-7.78,25.91-11.45,52.72-12.84,79.68-2.94,57.08,3.16,113.53,13.4,169.61,4.92,26.95,10.18,53.82,14.35,80.9,2.12,13.78,3.79,27.28,3.53,41.25-.24,13.33-1.27,26.62-2.07,39.92-1.71,28.23-1.48,56.52-2.73,84.77-.59,13.31-1.11,26.75-3.48,39.89-1.92,10.62-4.75,21.37-4.7,32.23,.02,3.85,.5,7.67,2.14,11.18,.23,.49,.95,.06,.73-.42-4.61-9.89-1.13-22.97,.8-33.11,2.19-11.44,3.77-22.65,4.52-34.29,1.82-28.18,1.48-56.42,2.73-84.62,1.19-26.85,5.28-54.43,1.68-81.22-3.5-26.05-8.29-51.92-13.17-77.74-5.45-28.85-10.69-57.77-13.92-86.97-3.08-27.85-4.12-56.02-3.59-84.03s3-56.64,9.9-84.08c6.5-25.85,16.57-50.9,28.91-74.5,11.55-22.09,25.2-43.26,33.41-66.93,4.3-12.41,7.37-25.64,7.98-38.79,.65-13.96-2.81-26.82-7.45-39.86-2.42-6.79-5.06-13.51-7.66-20.24-.19-.5-1.01-.28-.81,.22h0Z" style="fill: url(#linear-gradient-18);"/>
      <path d="M305.54-63.64c4.78,13.58,10.47,27.41,12.8,41.69,2.46,15.1-.21,30.4-4.31,44.97-7.08,25.12-21.34,47.08-34.41,69.37-12.99,22.16-24.17,45.46-32.05,69.94-8.23,25.55-12.11,52.11-13.61,78.86-1.54,27.62-1.01,55.52,1.09,83.1,2.18,28.6,6.74,56.96,11.7,85.19,4.96,28.26,10.22,56.43,13.65,84.93,1.63,13.54,2.52,26.73,1.65,40.36s-2.43,26.57-3.63,39.85c-2.54,28.12-2.47,56.37-3.8,84.56-.63,13.37-1.23,26.79-3.63,39.98-1.88,10.36-4.56,20.96-4.25,31.56,.11,3.72,.67,7.4,2.39,10.74,.24,.46,.93,.05,.69-.41-4.86-9.41-1.63-22.38,.17-32.17,2.1-11.45,3.8-22.64,4.57-34.28,1.87-28.36,1.58-56.82,3.49-85.17,1.8-26.82,7.25-54.16,4.71-81.07-2.51-26.63-7.01-53.05-11.72-79.36-5.22-29.1-10.45-58.24-13.61-87.66-2.98-27.77-3.97-55.87-3.31-83.79s3.29-55.73,10.56-82.63c6.83-25.28,17.35-49.64,30.11-72.49s26.59-42.61,35.63-66.07c4.73-12.28,8.21-25.4,9.35-38.53,1.24-14.34-1.91-27.56-6.32-41.1-2.25-6.91-4.72-13.74-7.13-20.59-.17-.48-.95-.28-.77,.21h0Z" style="fill: url(#linear-gradient-19);"/>
      <path d="M308.17-59.3c4.27,13.36,9.35,26.9,11.53,40.8,2.45,15.54-.67,31.19-5.25,46.03-7.74,25.09-22.68,46.72-36.5,68.74-13.49,21.49-25.25,44.14-33.63,68.13-8.91,25.5-13.14,52.14-14.78,79.04-1.69,27.73-1.14,55.76,.95,83.46s6.68,56.65,11.45,84.75c4.78,28.16,9.77,56.28,12.34,84.75,1.23,13.59,1.71,26.84,.31,40.44-1.37,13.25-3.49,26.41-5.12,39.62-3.49,28.22-3.66,56.67-5.02,85.04-.66,13.59-1.26,27.23-3.66,40.65-1.85,10.35-4.47,21.01-3.99,31.6,.17,3.68,.8,7.33,2.64,10.56,.24,.43,.9,.04,.66-.39-5.21-9.15-2.02-22.36-.31-32.05,2.03-11.43,3.75-22.61,4.51-34.22,1.89-28.52,1.65-57.19,4.25-85.66,2.45-26.82,9.25-53.94,7.64-80.98-1.62-27.15-5.74-54.04-10.3-80.82-4.9-28.75-10.01-57.5-13.1-86.52-2.93-27.56-3.9-55.47-3.2-83.18s3.51-56.07,11.35-82.99c7.36-25.3,18.69-49.5,32.26-72.05s28-41.95,37.56-65.32c5.02-12.27,8.85-25.46,10.16-38.67,1.41-14.19-1.6-27.38-5.64-40.89-2.01-6.73-4.21-13.4-6.35-20.1-.15-.47-.89-.27-.74,.2h0Z" style="fill: url(#linear-gradient-20);"/>
      <path d="M310.81-54.97c4.08,14.16,9.27,28.66,10.75,43.39,1.5,14.87-1.92,29.61-6.63,43.63-8.34,24.84-23.74,46.04-38.21,67.57-14.25,21.2-26.8,43.59-35.81,67.55-9.56,25.45-14.09,52.2-15.83,79.25-1.78,27.64-1.2,55.6,.85,83.22,2.11,28.37,6.66,56.49,11.27,84.55s9.42,56.81,11.13,85.58c.84,14.13,.63,27.8-1.49,41.81-2.03,13.49-4.77,26.86-6.8,40.35-4.16,27.61-4.44,55.59-5.86,83.43-.68,13.44-1.34,26.88-3.69,40.14-1.82,10.29-4.37,20.99-3.64,31.51,.25,3.56,.96,7.08,2.87,10.13,.25,.39,.88,.03,.63-.37-5.54-8.84-2.44-22.2-.82-31.73,1.92-11.23,3.67-22.2,4.44-33.58,1.92-28.46,1.75-57.14,4.94-85.5,3.05-27.1,11.33-54.13,10.76-81.53-.56-27.18-4.26-54.14-8.58-80.94-4.68-28.99-9.84-57.93-12.92-87.14-2.93-27.71-3.91-55.8-3.11-83.65,.8-27.86,3.81-55.9,12.16-82.59,7.92-25.3,20.08-49.32,34.46-71.55,13.8-21.35,29.63-41.63,39.7-65.15,5.03-11.77,8.98-24.39,10.58-37.11,1.79-14.17-.92-27.4-4.61-41.03-1.85-6.84-3.88-13.63-5.84-20.44-.13-.45-.83-.26-.7,.19h0Z" style="fill: url(#linear-gradient-21);"/>
      <path d="M313.45-50.63c3.71,14.4,8.61,29.18,9.71,44.07,1.1,15.05-2.81,29.84-7.96,43.85-8.99,24.45-24.83,45.1-39.85,66.07-14.88,20.78-28.15,42.75-37.74,66.5-10.07,24.96-14.95,51.34-16.87,78.1-2,27.79-1.4,55.91,.59,83.69,2.05,28.55,6.66,56.85,11.15,85.1s9.02,56.89,9.88,85.71c.43,14.44-.36,28.39-3.12,42.59-2.61,13.44-5.91,26.74-8.35,40.22-5.07,27.94-5.45,56.44-6.99,84.72-.71,13.02-1.43,26-3.68,38.86-1.79,10.24-4.26,20.98-3.29,31.43,.32,3.45,1.11,6.84,3.09,9.72,.25,.36,.84,.02,.59-.35-5.76-8.37-2.92-21.59-1.42-30.84,1.81-11.21,3.68-22.18,4.46-33.53,2-29.06,1.83-58.46,5.88-87.34,3.74-26.71,13.14-52.98,13.64-80.08,.5-27.43-2.84-54.73-6.98-81.8-4.46-29.22-9.66-58.35-12.71-87.77-2.89-27.85-3.85-56.12-2.91-84.11s4.21-55.47,13.1-81.78c8.41-24.88,21.18-48.31,36.05-69.89,14.32-20.79,30.62-40.48,41.34-63.51,5.7-12.26,10.28-25.51,12.14-38.93s-.51-26.75-3.76-40.12c-1.69-6.95-3.55-13.85-5.34-20.77-.11-.43-.77-.25-.66,.18h0Z" style="fill: url(#linear-gradient-22);"/>
      <path d="M316.08-46.29c3.37,14.76,8.07,29.99,8.68,45.19s-3.53,28.91-8.83,42.41c-9.61,24.46-25.93,44.86-41.69,65.55s-29.93,42.49-40.18,66.41c-10.42,24.32-15.58,50.13-17.66,76.42-2.21,27.88-1.6,56.1,.33,83.98s6.66,57.19,11.04,85.63c4.42,28.67,8.68,57.46,8.67,86.53,0,14.7-1.49,28.85-4.92,43.15-3.19,13.3-7,26.43-9.83,39.81-5.87,27.68-6.42,56.12-8,84.28-.75,13.31-1.56,26.51-3.83,39.66-1.7,9.87-3.94,20.26-2.89,30.32,.37,3.5,1.21,6.94,3.36,9.79,.25,.33,.81,0,.56-.33-6.07-8.06-3.33-21.41-1.92-30.54,1.7-11,3.6-21.76,4.37-32.88,2.04-29.23,1.91-58.91,6.66-87.88,4.39-26.79,15.12-52.72,16.67-79.93,1.58-27.66-1.41-55.31-5.35-82.66-4.25-29.45-9.49-58.77-12.52-88.39-2.83-27.76-3.78-55.95-2.72-83.83,1.05-27.8,4.63-55.72,14.23-81.97,9.09-24.85,22.77-47.98,38.44-69.21s31.68-39.55,42.82-62.35c5.82-11.91,10.6-24.81,12.76-37.91s.21-26.33-2.63-39.58c-1.57-7.31-3.33-14.58-4.99-21.87-.09-.41-.72-.23-.63,.17h0Z" style="fill: url(#linear-gradient-23);"/>
      <path d="M318.72-41.95c3,15.01,7.37,30.5,7.62,45.87,.25,15.27-4.66,30.04-10.65,43.89-10.37,23.96-27.3,43.78-43.52,63.91-16.06,19.93-30.68,41.11-41.38,64.45s-16.61,50.11-18.82,76.56c-2.35,28.04-1.69,56.44,.26,84.49,2.01,28.91,6.8,57.53,11.05,86.16s8.23,57.99,7.18,87.26c-.54,14.82-2.87,28.93-6.95,43.17-3.8,13.26-8.15,26.36-11.33,39.78-6.58,27.74-7.17,56.53-8.84,84.88-.77,13.01-1.76,25.83-3.92,38.68-1.62,9.62-3.7,19.9-2.29,29.67,.47,3.26,1.44,6.38,3.56,8.96,.25,.3,.68-.13,.43-.43-6.45-7.82-3.65-21.68-2.28-30.76,1.67-11.1,3.53-21.96,4.3-33.18,2-29.12,1.97-58.84,7.48-87.58,5.15-26.9,17.13-52.48,19.64-79.86s-.06-55.36-3.79-82.75c-4.04-29.67-9.34-59.18-12.33-88.99-2.77-27.65-3.7-55.77-2.53-83.54,1.16-27.72,5-55.53,15.17-81.49s24.63-48.23,41.3-69.35c15.29-19.37,32.03-37.89,43.51-59.92,6.16-11.82,11.3-24.66,13.85-37.76s.89-26.6-1.65-40.04c-1.4-7.43-2.99-14.81-4.47-22.22-.08-.38-.66-.22-.59,.16h0Z" style="fill: url(#linear-gradient-24);"/>
      <path d="M321.36-37.61c2.58,14.94,6.48,30.31,6.56,45.53s-5.07,30.04-11.36,43.81c-10.98,24.05-28.4,43.69-45.4,63.61-16.61,19.45-31.89,40.08-43.26,63.08s-17.78,49.51-20.22,75.9c-2.59,27.93-1.91,56.23-.09,84.19,1.9,29.33,6.82,58.36,11,87.42,4.19,29.14,7.88,58.6,5.91,88.09-.98,14.71-3.84,28.6-8.45,42.58-4.34,13.19-9.24,26.19-12.88,39.6-7.6,27.99-8.35,57.32-10.1,86.11-.78,12.83-1.83,25.44-3.91,38.12-1.55,9.48-3.5,19.6-2,29.2,.52,3.3,1.55,6.47,3.82,8.98,.25,.27,.65-.13,.4-.4-6.66-7.39-4.11-21.04-2.86-29.92,1.56-11.08,3.51-21.92,4.29-33.1,2.04-29.29,2.05-59.31,8.28-88.11,5.84-27.01,19.14-52.22,22.69-79.71,3.65-28.29,1.31-56.87-2.36-85.03-3.83-29.41-9.06-58.64-11.97-88.17-2.73-27.79-3.65-56.08-2.31-83.98,1.37-28.41,5.82-56.74,17.26-82.95,10.51-24.06,25.66-45.94,42.46-65.99,16-19.09,33.33-37.38,45.3-59.42,6.47-11.9,11.98-24.88,14.7-38.19s1.05-26.41-1.16-39.73c-1.2-7.25-2.55-14.46-3.8-21.7-.06-.36-.61-.21-.55,.15h0Z" style="fill: url(#linear-gradient-25);"/>
      <path d="M323.99-33.27c2.21,15.18,5.82,30.8,5.53,46.2-.29,15.51-5.94,30.28-12.67,44.04-11.73,24-29.83,43.36-47.53,63.01s-33.28,39.6-45.2,62.6c-12.26,23.65-18.45,49.29-20.95,75.7-2.63,27.79-1.9,55.95-.08,83.76,1.91,29.25,6.88,58.19,10.9,87.2s7.46,59.21,4.46,88.87c-1.51,14.99-5.18,28.97-10.47,43.04-4.81,12.8-10.1,25.44-14.06,38.55-8.44,27.93-9.33,57.53-11.13,86.45-.8,12.83-1.96,25.4-3.97,38.09-1.47,9.28-3.28,19.25-1.57,28.61,.59,3.2,1.7,6.26,4.01,8.61,.24,.24,.62-.13,.38-.38-6.75-6.86-4.59-20.06-3.49-28.62,1.44-11.2,3.53-22.18,4.33-33.47,2.07-29.46,2.13-59.8,9.09-88.64,6.55-27.12,21.1-51.91,25.72-79.5s2.86-56.47-.53-84.47c-3.56-29.38-8.81-58.54-11.77-88-2.81-27.93-3.79-56.4-2.4-84.45s5.86-56.21,17.57-82.01c10.95-24.13,26.8-45.88,44.26-65.68,16.78-19.02,34.97-37.14,47.74-59.27,6.72-11.65,12.52-24.36,15.68-37.47,3.3-13.7,1.91-27.11-.04-40.9-1.04-7.36-2.22-14.69-3.29-22.04-.05-.34-.56-.19-.51,.14h0Z" style="fill: url(#linear-gradient-26);"/>
      <path d="M326.62-29c1.81,15.12,4.98,30.68,4.54,45.96-.45,15.54-6.31,30.25-13.32,43.91-12.23,23.85-30.52,42.94-48.83,62.18-17.72,18.62-34.35,38.3-47.05,60.77s-20.04,48.37-22.91,74.7c-3.05,27.91-2.28,56.16-.64,84.13,1.76,30.15,6.99,59.95,10.98,89.84,3.93,29.43,6.97,59.38,3.07,88.98-1.93,14.62-5.97,28.25-11.63,41.84s-11.57,26.15-16.09,39.73c-9.23,27.67-10.33,57.32-12.16,86.2-.82,12.89-2.03,25.51-3.99,38.27-1.4,9.12-3.08,18.96-1.31,28.15,.63,3.26,1.83,6.37,4.29,8.66,.23,.22,.58-.13,.35-.35-6.93-6.45-5.01-19.45-4.03-27.82,1.27-10.91,3.44-21.62,4.23-32.59,2.12-29.64,2.19-60.32,9.76-89.22,7.22-27.54,23.23-52.11,28.95-80.04,5.75-28.1,4.34-57,1.11-85.32-3.37-29.59-8.69-58.93-11.62-88.57-2.75-27.83-3.71-56.21-2.2-84.14s6.36-56.13,18.74-81.65c11.5-23.71,27.91-44.87,45.79-64.08,17.26-18.54,35.84-36.18,49.21-57.9,7.13-11.59,13.36-24.29,16.97-37.45,3.82-13.94,2.75-27.61,1.08-41.79-.88-7.47-1.89-14.91-2.79-22.38-.04-.31-.53-.32-.49,0h0Z" style="fill: url(#linear-gradient-27);"/>
      <path d="M329.26-24.66c1.41,14.92,4.02,30.15,3.58,45.17-.45,15.39-6.35,29.96-13.47,43.39-12.7,23.93-31.14,42.93-50.15,61.88-18.3,18.24-35.69,37.31-49.27,59.41s-21.92,48.26-25.13,74.98c-3.37,28.03-2.57,56.44-.99,84.57,1.69,30.06,6.9,59.75,10.78,89.57,3.92,30.17,6.78,61.02,1.75,91.24-2.52,15.12-7.49,29.02-13.94,42.88-5.77,12.38-11.94,24.6-16.68,37.43-10.25,27.8-11.53,57.94-13.43,87.22-.82,12.69-2.09,25.12-3.95,37.68-1.35,9.09-2.98,18.99-.96,28.11,.7,3.17,1.97,6.16,4.48,8.3,.22,.19,.54-.13,.32-.32-7.2-6.14-5.41-19.28-4.51-27.57,1.19-10.94,3.38-21.68,4.17-32.67,2.13-29.79,2.27-60.8,10.69-89.67,8.01-27.44,25.06-51.41,31.81-79.22,6.84-28.21,5.83-57.54,2.77-86.18s-8.59-59.31-11.47-89.13c-2.73-28.19-3.7-56.99-1.9-85.27,1.8-28.29,7.3-56.17,20.69-81.39,12.44-23.42,29.72-43.98,48.27-62.77,17.64-17.86,36.33-35.06,49.9-56.39,7.27-11.43,13.71-23.9,17.53-36.93,4.05-13.83,3.2-27.49,1.86-41.66-.71-7.55-1.56-15.08-2.28-22.63-.03-.29-.48-.29-.45,0h0Z" style="fill: url(#linear-gradient-28);"/>
      <path d="M331.9-20.31c1.08,15.3,3.48,31,2.57,46.35-.91,15.39-7.22,29.83-14.69,43.11-13.45,23.91-32.55,42.68-52.27,61.4-18.95,17.99-37.06,36.85-51.25,58.92s-22.53,47.52-25.85,74.05c-3.51,28.09-2.67,56.58-1.07,84.77,1.73,30.48,7.18,60.57,10.91,90.83s5.97,60.86-.1,90.77c-3.01,14.8-8.49,28.34-15.32,41.75-6.24,12.24-12.9,24.29-18.06,37.05-11.2,27.66-12.73,58.02-14.68,87.46-.84,12.74-2.15,25.22-3.96,37.85-1.3,9.05-2.87,19.04-.62,28.06,.77,3.08,2.12,5.95,4.67,7.94,.21,.16,.51-.13,.29-.29-7.36-5.74-5.82-18.68-5.03-26.81,1.06-10.89,3.32-21.59,4.1-32.52,2.17-30.19,2.33-61.8,11.71-90.86,8.68-26.89,26.35-49.92,34.25-77.06,8.14-27.93,7.78-57.44,5.05-86.15-2.88-30.26-8.46-60.19-11.43-90.44-2.75-28.07-3.75-56.78-1.93-84.95,1.83-28.32,7.5-56.21,21.4-81.22,12.89-23.19,30.72-43.37,49.72-61.72s37.95-34.83,52.31-56.27c7.66-11.44,14.51-23.95,18.69-37.11,4.4-13.85,3.81-27.64,2.78-41.95-.55-7.66-1.23-15.31-1.77-22.96-.02-.27-.43-.27-.42,0h0Z" style="fill: url(#linear-gradient-29);"/>
      <path d="M334.53-15.97c.73,15.66,2.95,31.83,1.54,47.5s-7.88,29.26-15.51,42.23c-13.99,23.74-33.41,42.26-53.68,60.59-19.49,17.63-38.24,35.99-53.19,57.74-15.32,22.29-23.99,47.1-27.58,73.83-3.79,28.24-2.89,56.91-1.32,85.28,1.7,30.62,7.25,60.83,10.84,91.25,3.58,30.35,5.45,61.56-1.71,91.55-3.56,14.89-9.76,28.41-17.17,41.74s-14.62,25.37-20.27,38.88c-11.16,26.71-12.74,56.42-14.66,84.96-.86,12.77-2.25,25.26-3.98,37.93-1.24,9.07-2.83,19.4-.06,28.34,.87,2.81,2.3,5.3,4.71,7.03,.2,.14,.39-.19,.19-.33-7.98-5.71-6.15-19.82-5.29-28.22,1.13-11.06,3.24-21.91,4.02-33.01,2.08-29.66,2.52-60.88,12.57-89.19s28.7-50.04,37.43-77.6c8.91-28.13,8.86-58.04,6.19-87.15-2.77-30.19-8.38-60.05-11.22-90.23-2.64-27.96-3.62-56.57-1.58-84.6,2.08-28.51,8.39-56.28,23.23-80.98,13.76-22.9,32.38-42.54,52-60.5,18.76-17.17,38.41-33.78,53.04-54.8,7.86-11.29,14.97-23.63,19.43-36.69,4.75-13.89,4.41-27.77,3.69-42.26-.39-7.77-.91-15.53-1.27-23.3-.01-.24-.39-.24-.38,0h0Z" style="fill: url(#linear-gradient-30);"/>
      <path d="M337.17-11.63c.37,15.46,2.08,31.32,.68,46.76-1.42,15.62-8.34,30.05-16.46,43.23-14.68,23.82-34.66,42.24-55.66,60.38s-39.32,35.17-54.93,56.63c-16.17,22.22-25.38,47.12-29.13,74.27s-2.95,56.35-1.4,84.45c1.7,30.76,7.33,61.09,10.78,91.67,3.46,30.65,4.91,62.29-3.37,92.34-4.17,15.13-11.18,28.69-19.23,42.07-7.47,12.41-15.31,24.65-21.25,37.9-11.92,26.63-13.68,56.6-15.63,85.33-.85,12.41-2.22,24.55-3.87,36.86-1.22,9.08-2.75,19.46,.12,28.39,.92,2.87,2.43,5.41,4.99,7.08,.18,.12,.35-.17,.17-.29-8.24-5.39-6.56-19.63-5.78-27.96,1-10.6,3.11-21.01,3.86-31.64,2.13-30.07,2.57-61.91,13.46-90.41,10.38-27.17,30.35-49.42,40.19-76.79,10.11-28.13,10.64-58.46,8.17-87.93s-8.25-60.42-11.09-90.78c-2.63-28.09-3.65-56.88-1.41-85.03s9.02-56.05,24.56-80.34c14.45-22.59,33.63-41.71,53.74-59.24s39.64-33.36,54.83-54.4c8.17-11.31,15.64-23.65,20.38-36.82,5.04-14.02,4.83-28.21,4.38-42.92-.23-7.6-.56-15.19-.74-22.79,0-.22-.34-.22-.34,0h0Z" style="fill: url(#linear-gradient-31);"/>
      <path d="M339.81-7.28c.01,8.74,.23,17.47,.28,26.2,.04,8.26,.28,16.75-1.09,24.92-2.58,15.38-10.23,29.37-18.77,42.21-16.18,24.34-38.2,42.59-60.5,61.05-21.53,17.82-42.37,37.05-58.16,60.31s-23.39,50.92-25.88,79.27-1.43,59.96,1.52,89.49,8.2,57.45,10.51,86.38,1.53,58.62-8.55,86.12-30.71,49.23-42.65,75.8c-12.67,28.18-13.69,60.41-15.78,90.76-.68,9.84-2.18,19.43-3.39,29.2-1.09,8.78-2.44,18.95,.64,27.49,.99,2.75,2.56,5.13,5.1,6.64,.17,.1,.32-.16,.15-.26-8.08-4.78-6.98-18.03-6.4-25.98,.65-8.86,2.48-17.56,3.4-26.38,3.23-31,2.25-63.19,13.1-92.9,10-27.37,30.51-48.84,42.4-75.19,11.35-25.15,14.19-52.93,13.18-80.24-1.07-28.85-6.07-57.35-9.64-85.95s-5.24-58.04-4.33-87.04c.94-29.97,5.48-60.45,20.52-86.85,14.01-24.6,34.69-45.28,56.13-63.48,21.13-17.93,43.68-34.62,60.79-56.69,8.47-10.93,16.24-22.97,21.59-35.75,6.07-14.49,6.53-28.99,6.42-44.48-.06-8.22-.26-16.44-.27-24.66,0-.19-.3-.19-.3,0h0Z" style="fill: url(#linear-gradient-32);"/>
      <path d="M120.83,775.96c-7.59-4.93-6.72-17.43-6.21-25.23,.57-8.79,2.25-17.42,3.29-26.15,1.67-13.95,1.94-28.1,3.29-42.1,1.48-15.37,3.52-30.92,7.86-45.77,8.22-28.13,27.64-50.22,40.17-76.22s15.28-52.67,14.54-80.05c-.85-31.32-6.41-62.24-10.19-93.27-3.52-28.9-5.08-58.32-3.78-87.43,1.3-29.41,6.25-59.11,20.9-85.03,14.16-25.07,34.97-46.18,56.48-65.01s42.3-35.06,58.44-57.34c8.04-11.1,15.41-23.19,20.23-36.07,5.25-14.05,5.31-28.23,5.06-43.03-.14-7.91-.38-15.82-.46-23.73,0-.22-.34-.22-.34,0,.16,15.96,1.84,32.43,0,48.32-1.77,15.2-8.67,29.25-16.65,42.11-15.51,25.01-36.87,43.97-58.98,62.98-21.26,18.27-41.89,37.73-57.6,61.14s-23.48,50.77-26.25,79.03-1.92,58.87,.85,87.91c2.98,31.31,8.89,62.28,11.16,93.67,2.13,29.39,1.08,59.72-10.06,87.38-10.67,26.49-30.26,48.27-40.58,74.98-10.85,28.08-11.6,59.53-13.73,89.21-.65,9.05-2.23,17.93-3.27,26.93-.98,8.47-2.14,18.21,.8,26.44,.96,2.69,2.46,5.04,4.88,6.61,.18,.12,.35-.17,.17-.29h0Z" style="fill: url(#linear-gradient-33);"/>
      <path d="M118.42,773.61c-7.34-5.23-6.47-17.54-5.96-25.41,.58-8.88,2.26-17.61,3.28-26.43,3.41-29.4,2.96-59.18,11.2-87.9,8.07-28.11,26.96-50.64,38.78-76.96s13.87-53.65,12.69-81.29c-1.33-30.94-6.75-61.49-10.43-92.19-3.46-28.84-4.93-58.15-3.38-87.17,1.57-29.24,6.82-58.7,21.28-84.5,13.98-24.95,34.27-46.16,55.3-65.28s41.34-35.75,56.85-58.3c7.67-11.16,14.68-23.23,19.13-36.07,4.79-13.8,4.66-27.73,4.29-42.16-.21-7.86-.52-15.71-.67-23.57,0-.24-.38-.24-.38,0,.3,15.66,1.98,31.71,.5,47.34-1.42,15.09-7.87,29.13-15.47,42.05-14.79,25.12-35.49,44.44-57.01,63.7-20.96,18.76-41.34,38.59-56.85,62.24-15.42,23.51-23,50.1-26.01,77.87s-2.39,58.68,.3,87.66c2.9,31.16,8.66,61.98,11.21,93.17,2.39,29.24,2.12,59.39-8.01,87.29-9.9,27.25-29.35,49.81-39.48,77.02-10.47,28.12-11.37,59.37-13.55,88.97-.66,9.04-2.21,17.92-3.24,26.92s-2.14,18.41,.8,26.77c.93,2.63,2.35,4.95,4.64,6.58,.2,.14,.39-.19,.19-.33h0Z" style="fill: url(#linear-gradient-34);"/>
      <path d="M116.06,771.3c-7-5.45-6.26-17.26-5.79-25.14,.54-8.92,2.18-17.7,3.23-26.57,1.64-13.84,2.03-27.86,3.4-41.74,1.51-15.31,3.56-30.72,7.59-45.59,7.56-27.91,25.45-50.81,36.9-76.98,11.25-25.71,13.19-53.98,11.78-81.69-1.56-30.76-6.84-61.15-10.52-91.69-3.47-28.83-5.01-58.03-3.36-87.04s6.89-58.49,20.85-84.37c13.63-25.25,33.57-46.92,54.27-66.54,19.52-18.49,40.22-36.24,55.22-58.81,7.56-11.38,14.4-23.71,18.65-36.74,4.55-13.96,4.2-28.04,3.68-42.55-.27-7.55-.63-15.1-.84-22.66,0-.27-.42-.27-.42,0,.43,15.39,2.14,31.08,.98,46.46-1.13,15.08-7.2,29.23-14.52,42.27-14.15,25.21-34.23,44.84-55.18,64.37-20.43,19.05-40.31,39.08-55.51,62.68-15.29,23.75-22.97,50.52-26.13,78.42s-2.67,58.05-.02,86.76c2.86,31,8.48,61.68,11.24,92.69,2.61,29.29,3.06,59.57-6.49,87.76-9.15,27.04-27.58,49.8-37.47,76.58-10.25,27.77-11.48,58.48-13.64,87.71-.7,9.46-2.15,18.74-3.26,28.15-1.04,8.74-2.17,18.42,.35,27.01,.86,2.94,2.26,5.65,4.71,7.56,.21,.16,.51-.13,.29-.29h0Z" style="fill: url(#linear-gradient-35);"/>
      <path d="M113.65,768.95c-6.86-5.84-6.03-17.73-5.51-25.81,.58-9.07,2.29-17.98,3.26-27,3.16-29.23,3.38-58.77,11.14-87.35,7.31-26.92,23.74-49.66,34.55-75.08,11.04-25.98,12.52-54.4,10.86-82.24-1.8-30.29-6.88-60.24-10.54-90.33s-5.16-57.46-3.54-86.25,6.85-59.22,20.53-85.59c13.17-25.37,32.6-47.38,52.8-67.37,18.93-18.74,39.12-36.71,53.7-59.25,7.36-11.38,13.94-23.74,18.09-36.68,4.5-14.05,4.19-28.08,3.55-42.65-.34-7.78-.79-15.56-1.08-23.34-.01-.29-.47-.29-.45,0,.58,15.75,2.61,31.91,1.3,47.65-1.25,15.03-7.26,29.15-14.41,42.25-13.59,24.91-33.15,44.55-53.3,64.16s-39.55,40.05-54.32,63.99-22.17,50.81-25.33,78.57c-3.27,28.69-2.7,57.97,.05,86.67,2.95,30.83,8.44,61.37,11.28,92.21,2.65,28.72,3.54,58.39-5.24,86.22-8.42,26.73-25.79,49.6-35.39,75.9-10.1,27.65-11.58,58.09-13.78,87.17-.73,9.74-2.11,19.3-3.27,28.99-1.08,9.01-2.29,18.96,.23,27.84,.83,2.93,2.17,5.66,4.52,7.66,.22,.19,.54-.13,.32-.32h0Z" style="fill: url(#linear-gradient-36);"/>
      <path d="M111.25,766.61c-6.59-6.12-5.79-17.83-5.26-25.99,.58-9.06,2.25-17.98,3.22-27,3.16-29.34,3.57-58.98,11.22-87.68,7.25-27.17,23.43-50.43,33.5-76.43,10.23-26.41,10.72-55.01,8.63-82.9-2.26-30.14-7.28-59.97-10.86-89.96-3.37-28.31-4.95-56.87-3.09-85.35,1.9-29,7.36-58.29,20.67-84.36,12.91-25.28,31.78-47.42,51.43-67.7,18.78-19.38,38.84-38.06,52.92-61.34,6.82-11.29,12.91-23.44,16.63-36.13,4.04-13.79,3.55-27.56,2.79-41.76-.41-7.73-.92-15.45-1.28-23.19-.01-.32-.51-.32-.49,0,.71,15.44,2.74,31.19,1.79,46.64s-6.46,29.03-13.22,42.18c-12.98,25.24-32.07,45.37-51.81,65.4s-38.59,40.64-53.04,64.61-21.79,50.17-25.18,77.5-3.14,57.2-.53,85.58c2.83,30.68,8.19,61.06,11.33,91.7,2.95,28.82,4.7,58.62-3.16,86.85-7.65,27.46-24.79,51.15-34.23,77.96-9.66,27.44-11.32,57.42-13.54,86.19-.77,9.97-2.12,19.78-3.31,29.7-1.07,9.03-2.24,18.9,.11,27.83,.79,3.01,2.09,5.85,4.39,7.99,.23,.22,.58-.13,.35-.35h0Z" style="fill: url(#linear-gradient-37);"/>
      <path d="M108.85,764.26c-6.43-6.51-5.55-18.31-4.99-26.68,.62-9.11,2.29-18.08,3.21-27.15,2.97-29.22,3.75-58.75,11.24-87.33,7.06-26.95,22.52-50.43,31.94-76.45,9.68-26.74,9.45-55.49,7.02-83.45-5.05-58.1-18.14-115.32-14-173.96,2.02-28.6,7.54-57.49,20.28-83.37,12.71-25.83,31.45-48.57,50.95-69.55,18.08-19.46,37.37-38.31,50.82-61.46,6.69-11.51,12.58-23.92,16.07-36.8,3.72-13.7,3.1-27.36,2.22-41.39-.48-7.68-1.06-15.35-1.48-23.03-.02-.34-.55-.34-.53,0,.84,15.16,2.88,30.55,2.26,45.75-.62,15.14-5.95,29.58-12.56,43.06-12.4,25.28-30.96,45.67-50.11,65.98-19.17,20.33-37.87,41.57-51.99,65.83-13.85,23.79-21.27,50.26-24.73,77.45-3.59,28.24-3.24,56.91-.59,85.21,2.82,30.14,7.97,59.99,11.27,90.07,3.17,28.88,5.59,58.74-1.63,87.23-6.96,27.46-23.32,51.46-32.48,78.16-9.47,27.6-11.27,57.59-13.54,86.46-.78,9.95-2.11,19.76-3.28,29.67-1.07,9.06-2.17,18.83,0,27.81,.75,3.1,2,6.04,4.27,8.33,.24,.24,.62-.13,.38-.38h0Z" style="fill: url(#linear-gradient-38);"/>
      <path d="M106.44,761.92c-6.26-6.9-5.31-18.8-4.7-27.38,.64-9.04,2.28-17.96,3.17-26.98,2.89-29.42,3.92-59.19,11.45-87.94,7.12-27.18,22.4-51.16,30.89-77.81,8.54-26.81,7.41-55.26,4.64-82.9-5.78-57.68-18.54-114.88-13.89-173.14,2.29-28.72,8.25-57.59,21.09-83.55,12.51-25.3,30.49-47.82,49.18-68.8,17.69-19.86,36.54-39.23,49.38-62.76,6.21-11.38,11.64-23.56,14.81-36.17,3.44-13.65,2.68-27.24,1.67-41.16-.55-7.62-1.19-15.24-1.68-22.87-.02-.36-.59-.37-.57,0,.97,15.06,3.11,30.33,2.68,45.44s-5.23,28.96-11.35,42.27c-11.75,25.57-29.75,46.42-48.44,67.14s-36.64,41.86-50.48,65.95c-13.73,23.9-21.38,50.37-25.06,77.59-3.78,27.93-3.55,56.23-.99,84.25,2.74,29.98,7.77,59.68,11.3,89.56,3.41,28.84,6.56,58.64,.27,87.32s-21.95,52.44-30.96,79.34-11.17,56.85-13.47,85.39c-.83,10.27-2.1,20.39-3.32,30.62-1.1,9.23-2.22,19.12-.16,28.3,.71,3.19,1.92,6.23,4.13,8.68,.25,.27,.65-.13,.4-.4h0Z" style="fill: url(#linear-gradient-39);"/>
      <path d="M104.04,759.57c-5.98-7.18-5.07-18.88-4.46-27.58,.64-9.16,2.29-18.2,3.16-27.33,2.79-29.2,4.13-58.7,11.34-87.26,6.81-27.01,21.33-51.17,29.3-77.76s6.38-55.66,3.3-83.41c-6.36-57.31-18.97-114.57-14.07-172.5,2.4-28.34,8.44-56.81,20.77-82.57,12.36-25.82,30.19-48.95,48.69-70.63,17.01-19.94,35.08-39.49,47.29-62.9,6.06-11.62,11.28-24.05,14.22-36.84,3.18-13.81,2.19-27.55,1.04-41.55-.6-7.32-1.28-14.63-1.82-21.95-.03-.39-.64-.39-.61,0,1.11,15,3.37,30.18,3.11,45.25s-4.79,29.02-10.63,42.46c-11.15,25.62-28.62,46.76-46.71,67.75-17.99,20.87-35.6,42.43-49.1,66.56-13.62,24.34-21.36,51.21-25.12,78.76-7.87,57.67,3.29,114.68,10.41,171.79,3.61,28.95,7.39,58.83,1.61,87.76s-20.47,52.22-29.11,78.83c-8.93,27.5-11.1,57.02-13.46,85.67-.84,10.25-2.1,20.37-3.3,30.58-1.08,9.25-2.16,19.07-.26,28.28,.68,3.29,1.83,6.43,4,9.04,.25,.3,.68-.13,.43-.43h0Z" style="fill: url(#linear-gradient-40);"/>
      <path d="M101.69,757.29c-5.53-7.23-4.87-18.21-4.33-26.78,.59-9.4,2.24-18.68,3.16-28.04,2.84-29,4.34-58.18,11.15-86.63s20.37-51.56,27.89-78.27,5.46-54.69,2.19-81.89c-6.84-56.91-19.47-114.24-14.73-171.83,2.34-28.45,8.41-57.07,20.38-83.1,11.74-25.53,28.64-48.65,46.27-70.39,16.48-20.32,34.1-40.07,46.24-63.43,6.28-12.08,11.52-25.16,14.48-38.47,3.09-13.91,2.13-27.64,.84-41.72-.69-7.55-1.46-15.09-2.1-22.64-.03-.41-.68-.42-.65,0,1.27,15.16,3.76,30.54,3.53,45.78s-4.43,28.65-9.93,42.01c-10.83,26.33-28.3,48.13-46.25,69.92s-34.3,42.9-47.24,67.03c-12.96,24.18-20.54,50.71-24.33,77.81-8.01,57.34,3.13,114.35,10.56,171.11,3.73,28.46,7.99,57.73,3.09,86.32-4.72,27.53-18.85,52.36-27.28,78.77s-11.15,56.63-13.55,85.14c-.88,10.38-2.05,20.66-3.28,31-1.13,9.46-2.24,19.39-.56,28.85,.62,3.5,1.7,6.92,3.89,9.77,.25,.33,.81,0,.56-.33h0Z" style="fill: url(#linear-gradient-41);"/>
      <path d="M99.28,754.95c-5.44-7.76-4.65-19.08-4.02-28.06s2.28-18.68,3.15-28.06c2.68-29.15,4.5-58.58,11.44-87.13s20.42-52.35,26.79-79.72c6.24-26.78,3.24-54.43-.38-81.35-7.55-56.21-19.8-113.48-14.57-170.43,2.58-28.04,8.93-56.13,20.63-81.83s28.34-49.14,45.61-71.38c16.13-20.77,33.32-41.13,44.71-65.04,5.7-11.96,10.42-24.74,12.95-37.77,2.65-13.64,1.53-27.07,.14-40.79-.76-7.5-1.6-14.98-2.3-22.48-.04-.44-.73-.44-.69,0,1.39,14.84,3.87,29.82,3.97,44.75,.1,14.2-3.54,28.07-8.51,41.28-10.05,26.71-26.81,49.05-44.29,71.3-16.96,21.58-33.63,43.75-46.46,68.1s-20.38,50.08-24.4,76.8c-8.46,56.21,2.05,112.54,9.85,168.2,3.96,28.26,8.95,57.21,5.6,85.79-3.33,28.46-17.05,54.23-25.63,81.26s-11.37,56.31-13.84,84.73c-.95,10.87-2.08,21.65-3.37,32.48-1.15,9.64-2.29,19.68-.77,29.33,.58,3.68,1.61,7.28,3.77,10.36,.25,.36,.85,.02,.59-.35h0Z" style="fill: url(#linear-gradient-42);"/>
      <path d="M96.88,752.61c-5.15-8.02-4.41-19.17-3.77-28.26s2.24-18.71,3.11-28.1c2.75-29.66,4.67-59.65,11.83-88.67,6.63-26.9,19.64-51.95,25.15-79.14,5.45-26.91,1.75-54.44-2.2-81.28-4.27-29.08-8.96-58.14-12.32-87.34-3.17-27.58-5.09-55.34-2.3-83.04s9.43-55.34,20.91-80.77c11.41-25.28,27.27-48.51,43.73-70.74s32.43-42.04,43.4-66.24c5.44-12.01,9.85-24.83,12.18-37.83,2.52-14.04,1.18-27.84-.39-41.9-.81-7.18-1.67-14.36-2.42-21.55-.05-.46-.77-.46-.73,0,1.53,14.78,4.13,29.68,4.41,44.55s-3.09,28.15-7.78,41.47c-9.2,26.14-24.81,48.4-41.28,70.4-16.7,22.31-33.27,45.01-46.11,69.83s-20.29,49.79-24.51,76.33c-8.84,55.57,1.41,111.69,9.53,166.71,4.19,28.42,9.85,57.43,7.32,86.26-2.5,28.48-15.36,54.48-23.74,81.47-8.49,27.37-11.4,56.24-13.94,84.67-1,11.19-2.13,22.31-3.45,33.46-1.14,9.64-2.25,19.64-.86,29.31,.55,3.79,1.53,7.52,3.61,10.76,.25,.39,.88,.03,.63-.37h0Z" style="fill: url(#linear-gradient-43);"/>
      <path d="M94.48,750.27c-4.94-8.4-4.17-19.67-3.49-29.02s2.31-19.38,3.16-29.1c2.56-29.23,4.86-58.82,11.77-87.41,6.51-26.97,19.07-52.35,23.8-79.77s.43-53.51-3.77-79.84c-4.63-29.1-9.35-58.23-12.72-87.51-3.19-27.74-5.26-55.7-2.27-83.56s9.9-55.06,21.27-80.43,27-49,43.08-71.71c15.21-21.48,31.26-42.75,41.47-67.19,5.04-12.06,9.05-24.87,11.01-37.81,2.09-13.75,.61-27.24-1.07-40.95-.87-7.13-1.8-14.26-2.62-21.4-.05-.48-.82-.49-.76,0,1.64,14.45,4.22,28.96,4.81,43.51s-2.34,28.02-6.63,41.38c-8.49,26.45-23.48,49.22-39.47,71.67s-32.25,45.56-44.89,70.4c-12.25,24.08-20.43,50.05-24.82,76.7-9.1,55.17,1.12,111.38,9.55,165.99,4.36,28.21,10.51,56.86,8.79,85.55-1.72,28.63-13.89,54.97-22.04,82.1-8.19,27.28-11.25,55.9-13.84,84.17-1.03,11.23-2.12,22.42-3.44,33.62-1.18,9.97-2.33,20.29-.94,30.3,.52,3.75,1.46,7.42,3.39,10.69,.25,.42,.91,.04,.66-.39h0Z" style="fill: url(#linear-gradient-44);"/>
      <path d="M92.08,747.93c-4.73-8.8-3.93-20.17-3.2-29.8s2.29-19.54,3.15-29.34c2.57-29.27,5.04-58.91,11.93-87.55,6.39-26.57,18.15-51.89,22.19-79.03,3.98-26.7-.79-53.58-5.33-79.88-4.92-28.55-9.56-57.2-12.92-85.98s-5.5-55.25-2.59-82.83c2.93-27.79,10.08-55.37,21.31-80.97,11.18-25.48,26.28-49.17,41.79-72.19,14.56-21.6,29.86-43.01,39.68-67.3,5.05-12.48,8.9-25.77,10.72-39.12,1.89-13.9,.28-27.49-1.55-41.3-.94-7.08-1.93-14.16-2.81-21.25-.06-.51-.87-.51-.8,0,1.78,14.39,4.48,28.82,5.24,43.31,.75,14.36-1.97,28.59-6.08,42.29-7.95,26.5-22.48,49.57-37.87,72.3s-31.26,46.26-43.6,71.25c-11.88,24.07-20.12,49.87-24.56,76.34-9.2,54.79,1.1,111.17,9.87,165.37,4.56,28.19,11.28,56.71,10.06,85.44-1.19,28.06-12.37,54.14-20.15,80.78-7.98,27.35-11.22,55.89-13.88,84.18-1.08,11.46-2.18,22.88-3.51,34.3-1.19,10.25-2.38,20.87-.91,31.15,.51,3.57,1.41,7.05,3.12,10.24,.24,.46,.94,.05,.69-.41h0Z" style="fill: url(#linear-gradient-45);"/>
      <path d="M89.68,745.59c-4.43-9.03-3.68-20.28-2.96-30.02s2.29-20.07,3.19-30.14c2.59-29.11,5.22-58.54,11.93-87.05,6.17-26.22,17.17-51.43,20.69-78.25,3.51-26.78-1.79-53.58-6.67-79.83-5.26-28.31-9.93-56.79-13.3-85.38-3.23-27.34-5.74-55.15-2.85-82.63,2.96-28.19,10.52-56.05,21.84-82.02,11.2-25.68,26.07-49.71,41.19-73.23,14.06-21.87,28.69-43.71,37.74-68.25,4.48-12.14,7.84-24.96,9.37-37.82,1.62-13.58,.06-26.8-1.84-40.26-1.06-7.5-2.2-14.99-3.21-22.49-.07-.53-.91-.54-.84,0,1.92,14.3,4.72,28.61,5.66,43.01s-1.33,27.95-4.97,41.44c-7.17,26.59-20.85,50.03-35.61,73.03-15.14,23.59-30.53,47.2-42.81,72.45-11.91,24.47-20.47,50.56-25.05,77.39-4.62,27.05-3.92,54.04-1.39,81.27,2.6,27.94,6.93,55.69,11.62,83.35,4.75,28,11.95,56.15,11.4,84.73s-10.99,54.11-18.48,80.68c-7.68,27.26-11.05,55.55-13.76,83.68-1.11,11.49-2.18,22.97-3.51,34.43-1.21,10.44-2.41,21.22-1.07,31.7,.47,3.69,1.33,7.29,2.97,10.64,.24,.49,.97,.06,.73-.42h0Z" style="fill: url(#linear-gradient-46);"/>
      <path d="M87.28,743.25c-4.21-9.42-3.44-20.79-2.67-30.83s2.31-20.74,3.25-31.13c2.64-29.12,5.42-58.55,12.16-87.06,6-25.4,15.99-50.1,18.95-76.15s-2.73-53.27-7.94-79.31c-5.66-28.23-10.4-56.69-13.83-85.28-3.28-27.33-5.98-55.26-3.1-82.74s10.56-55.08,21.48-80.73c10.97-25.76,25.37-49.98,39.94-73.84,13.67-22.39,27.88-44.76,36.59-69.67,4.34-12.39,7.43-25.45,8.79-38.51,1.45-13.96-.35-27.54-2.45-41.32-1.11-7.26-2.28-14.51-3.34-21.78-.08-.56-.93-.32-.85,.23,2.16,14.91,5.4,29.91,6.23,44.97,.79,14.26-1.49,28.45-5.05,42.22-6.92,26.78-20.66,50.65-34.97,74.07s-29.21,47.55-41,72.79c-11.42,24.46-19.89,50.4-24.29,77.06s-3.28,53.62-.67,80.56,7.02,55.28,11.93,82.69,12.57,55.27,12.49,83.54c-.08,27.29-9.61,53.11-16.72,79.11-7.46,27.32-10.99,55.53-13.78,83.66-1.16,11.71-2.24,23.41-3.58,35.1-1.19,10.46-2.36,21.2-1.16,31.71,.44,3.81,1.25,7.54,2.82,11.05,.23,.52,.99,.07,.76-.44h0Z" style="fill: url(#linear-gradient-47);"/>
      <path d="M84.93,741.02c-3.85-9.5-3.25-20.55-2.52-30.57,.78-10.61,2.29-21.15,3.26-31.74,2.67-29,5.58-58.24,12.07-86.67,5.73-25.08,15.08-49.61,17.67-75.33,2.67-26.51-3.39-52.76-8.95-78.51-6.09-28.21-11-56.7-14.52-85.35-3.37-27.44-6.35-55.69-3.5-83.29,5.88-56.94,32.77-107.32,61.05-156.01,13.3-22.9,26.97-45.9,34.98-71.3,3.85-12.22,6.52-25.03,7.56-37.81,1.13-13.9-.81-27.39-3.04-41.08-1.18-7.21-2.42-14.41-3.54-21.62-.09-.58-.98-.34-.89,.24,2.31,14.81,5.64,29.68,6.69,44.65,1,14.15-.9,28.3-4.09,42.08-6.16,26.64-18.97,50.69-32.55,74.19-27.56,47.69-55.38,95.58-64.87,150.63-4.65,26.96-3.37,53.97-.73,81.08,2.7,27.78,7.05,55.4,12.24,82.83s13.16,54.25,13.85,82.11-7.98,52.75-14.82,78.55c-7.19,27.1-10.94,54.92-13.8,82.77-1.22,11.88-2.26,23.77-3.62,35.63-1.22,10.69-2.44,21.58-1.53,32.34,.36,4.25,1.1,8.46,2.71,12.43,.22,.54,1.11,.3,.89-.24h0Z" style="fill: url(#linear-gradient-48);"/>
      <path d="M82.53,738.68c-3.7-10.09-3.01-21.55-2.18-32.08s2.32-21.88,3.35-32.83c2.73-28.98,5.83-58.21,12.37-86.62,5.73-24.89,14.56-49.6,16.12-75.27,1.6-26.32-5.09-52.11-10.96-77.53-6.37-27.58-11.24-55.53-14.73-83.62-3.36-27.08-6.44-55.1-3.74-82.36,5.61-56.6,33-107.21,59.98-156.15,12.81-23.23,25.88-46.61,33.43-72.18,3.75-12.72,6.2-26.04,6.97-39.29s-1.27-27.19-3.63-40.75c-1.25-7.15-2.55-14.3-3.74-21.46-.1-.61-1.02-.35-.92,.25,2.46,14.77,5.91,29.57,7.16,44.5s-.39,28.45-3.26,42.36c-5.57,27-17.94,51.62-31.08,75.63-26.29,48.05-54.14,96.23-63.65,150.94-4.64,26.71-3.13,53.57-.49,80.42s6.94,54.37,12.26,81.24c5.33,26.9,13.76,53.45,15.4,80.95,1.61,26.85-6.03,52.51-12.64,78.23-6.93,26.94-10.98,54.39-13.95,82.03-1.35,12.57-2.42,25.17-3.84,37.73-1.24,10.89-2.49,21.96-1.72,32.94,.31,4.48,1.01,8.94,2.56,13.17,.21,.57,1.14,.33,.92-.25h0Z" style="fill: url(#linear-gradient-49);"/>
      <path d="M80.13,736.34c-3.46-10.47-2.76-22.12-1.89-32.95s2.33-22.41,3.41-33.62c2.76-28.6,5.98-57.38,12.28-85.44,5.53-24.6,13.77-49.19,14.87-74.55,1.12-26.14-5.97-51.64-12.19-76.77-6.82-27.54-11.88-55.52-15.44-83.67-3.43-27.16-6.69-55.46-4.01-82.82,5.59-56.97,34.18-108.22,60.23-158.02,12.23-23.38,24.45-47.08,31.15-72.75,3.27-12.54,5.28-25.6,5.74-38.56,.49-13.74-1.73-27.04-4.22-40.5-1.32-7.1-2.69-14.19-3.95-21.3-.11-.63-1.07-.36-.96,.26,2.6,14.67,6.15,29.34,7.62,44.17s.21,28.31-2.28,42.22c-4.83,26.99-16.34,51.89-28.83,76.09-25.15,48.75-53.55,97.39-63.25,152.13-4.75,26.84-2.99,53.96-.3,80.94,2.73,27.3,7.01,54.5,12.69,81.35,5.7,26.9,14.67,53.35,16.71,80.91,1.96,26.55-5.19,52.14-11.47,77.67-6.55,26.66-10.6,53.76-13.58,81.03-1.36,12.42-2.42,24.87-3.82,37.29-1.24,11.1-2.51,22.34-1.85,33.52,.27,4.63,.92,9.24,2.38,13.66,.2,.61,1.16,.35,.96-.26h0Z" style="fill: url(#linear-gradient-50);"/>
      <path d="M77.73,734.01c-3.15-10.66-2.51-22.27-1.65-33.22s2.33-22.93,3.46-34.4c2.82-28.66,6.2-57.46,12.4-85.6,5.4-24.49,13.18-49.21,13.55-74.47s-7.32-51.43-13.91-76.45c-7.16-27.16-12.29-54.83-15.85-82.69-1.8-14.08-3.18-28.21-4.05-42.38-.83-13.52-1.43-27.07-.1-40.58,5.52-56.27,34.51-107.25,59.17-156.97,11.77-23.72,23.39-47.8,29.6-73.68,3.08-12.82,4.83-26.13,5.05-39.31,.24-13.9-2.13-27.35-4.8-40.94-1.39-7.05-2.82-14.09-4.15-21.15-.12-.65-1.12-.38-1,.28,2.71,14.38,6.23,28.72,8.01,43.25s.88,29.02-1.32,43.32c-4.22,27.37-15.25,52.87-27.3,77.59-23.88,49.01-52.51,97.8-62.15,152.17-4.71,26.54-2.75,53.52-.07,80.19,2.75,27.36,7.03,54.66,13.09,81.48,5.94,26.31,15.14,52.06,17.95,79,2.77,26.61-3.65,52.33-9.71,78.04-6.25,26.53-10.44,53.38-13.5,80.46-1.43,12.67-2.53,25.37-3.93,38.04-1.25,11.3-2.53,22.73-1.97,34.12,.23,4.79,.83,9.56,2.19,14.16,.19,.64,1.19,.37,1-.28h0Z" style="fill: url(#linear-gradient-51);"/>
      <path d="M75.33,731.67c-2.91-11.04-2.26-22.86-1.35-34.13s2.35-23.54,3.53-35.3c2.89-28.67,6.47-57.42,12.57-85.61,5.23-24.18,12.44-48.84,12.1-73.79-.36-26.26-8.74-51.49-15.73-76.53-7.51-26.89-12.69-54.38-16.26-82.06-1.8-13.96-3.15-27.97-4.02-42.01s-1.51-27.1-.17-40.61c2.78-28.03,12.19-55.01,23.17-80.77s23.9-51.14,35.89-76.68c11.21-23.9,22.01-48.26,27.47-74.21,2.71-12.86,4.09-26.14,4.01-39.29-.09-13.83-2.6-27.2-5.4-40.69-1.45-7-2.96-13.98-4.36-20.99-.14-.68-1.17-.39-1.04,.29,2.76,13.82,6.21,27.57,8.26,41.52,2.1,14.33,1.78,28.89,.05,43.24-3.36,27.86-13.6,54.06-25.19,79.41-11.64,25.47-24.34,50.44-35.83,75.98s-21.01,50.04-25.89,76.66-2.76,53.52-.09,80.14,6.98,54.16,13.23,80.68,15.82,51.65,19.46,78.4-2.01,52.32-7.83,78.15c-5.97,26.54-10.34,53.28-13.48,80.3-1.5,12.91-2.64,25.86-4.05,38.78-1.25,11.52-2.54,23.13-2.1,34.74,.19,4.95,.74,9.88,2,14.68,.18,.67,1.21,.38,1.04-.29h0Z" style="fill: url(#linear-gradient-52);"/>
      <path d="M72.93,729.34c-2.66-11.42-2-23.47-1.05-35.07s2.37-24.13,3.62-36.18c2.94-28.44,6.67-56.91,12.57-84.91,5.04-23.94,11.71-48.52,10.84-73.18-.9-25.7-9.55-50.31-16.83-74.71-7.85-26.28-13.25-53.16-16.93-80.33-1.93-14.2-3.36-28.47-4.31-42.77-.9-13.58-1.77-27.31-.62-40.9,2.41-28.33,12.19-55.53,23.31-81.48,11.18-26.08,23.79-51.53,35.3-77.47,10.86-24.47,21.08-49.48,25.89-75.94,2.39-13.17,3.4-26.7,2.94-40.07s-3.21-27.05-6.15-40.43c-1.47-6.69-2.98-13.38-4.4-20.08-.15-.7-1.22-.4-1.07,.3,2.9,13.72,6.44,27.37,8.69,41.22s2.36,28.74,1.04,43.08c-2.59,27.99-12.05,54.58-23.03,80.26-11.2,26.18-23.74,51.76-35.39,77.74-11.02,24.56-21.19,49.89-26.02,76.48s-2.37,53.98,.39,80.64c2.79,26.88,7.08,53.79,13.7,80,6.47,25.61,16.33,50.42,20.55,76.57s-.61,51.71-6.09,77.34-10.2,53.16-13.42,80.11c-1.59,13.34-2.82,26.72-4.25,40.08-1.26,11.74-2.53,23.57-2.13,35.4,.17,4.92,.67,9.8,1.79,14.6,.16,.7,1.24,.4,1.07-.3h0Z" style="fill: url(#linear-gradient-53);"/>
      <path d="M70.53,727c-2.4-11.81-1.74-24.1-.76-36.04s2.39-24.71,3.71-37.04c3.01-28.23,6.88-56.44,12.56-84.27,4.91-24.04,11.24-49,9.53-73.73-1.8-25.86-11.11-50.38-18.81-74.89-8.3-26.44-13.78-53.63-17.43-81.08-1.83-13.79-3.19-27.65-4.08-41.54s-1.76-27.33-.51-40.9c2.59-28.17,12.81-55.07,24.03-80.81,11-25.24,22.91-50.07,33.59-75.45,10.54-25.06,20.23-50.74,24.44-77.72,2.02-12.95,2.71-26.18,2.07-39.27-.68-13.89-3.51-27.35-6.63-40.86-1.6-6.92-3.24-13.83-4.79-20.76-.16-.72-1.27-.42-1.11,.31,3.15,14.12,7,28.17,9.38,42.44,2.36,14.16,2.69,28.58,1.66,42.88-1.96,27.24-10.35,53.44-20.39,78.68-10.64,26.76-22.93,52.81-34.73,79.07-10.98,24.43-21.5,49.48-26.47,75.93-4.93,26.25-2.44,53.5,.26,79.88,2.76,26.95,7.07,53.95,13.96,80.17,6.75,25.7,17.19,50.43,22.11,76.6s.8,51.51-4.41,77.22c-5.39,26.64-10.06,53.31-13.35,80.31-1.62,13.31-2.88,26.65-4.29,39.99-1.26,11.97-2.55,24.01-2.25,36.06,.13,5.09,.58,10.15,1.6,15.14,.15,.73,1.26,.42,1.11-.31h0Z" style="fill: url(#linear-gradient-54);"/>
      <path d="M68.13,724.66c-2.15-12.19-1.47-24.76-.46-37.03s2.42-25.28,3.8-37.89c3.09-28.21,7.15-56.34,12.66-84.19,4.7-23.79,10.5-48.71,8.13-73.1-2.48-25.6-12.21-49.71-20.25-73.91-8.51-25.62-14.11-52-17.83-78.73-1.97-14.11-3.4-28.29-4.35-42.51-.9-13.46-1.89-27.18-.84-40.66,2.19-28.09,12.6-54.84,23.82-80.4s22.67-49.86,32.83-75.3,19.45-51.99,23.15-79.49c1.79-13.25,2.19-26.73,1.27-40.07-.97-14.06-3.99-27.68-7.3-41.35-1.67-6.87-3.38-13.72-5-20.6-.18-.75-1.32-.43-1.15,.32,3.31,14.07,7.27,28.06,9.86,42.29s3.32,29.31,2.57,44.01c-1.41,27.64-9.34,54.46-18.99,80.23-10.09,26.93-22,53.11-33.8,79.31-10.94,24.3-21.66,49.16-26.42,75.53-4.7,25.99-1.95,53.29,.8,79.38,2.81,26.67,7.16,53.43,14.36,79.29s17.82,49.68,23.34,75.49c2.63,12.3,3.69,24.57,2.87,37.12-.86,13.24-3.12,26.36-5.6,39.39-5.07,26.62-9.86,53.19-13.23,80.09-1.69,13.52-3.02,27.08-4.43,40.63-1.27,12.21-2.56,24.47-2.36,36.76,.08,5.26,.49,10.5,1.4,15.69,.13,.75,1.28,.43,1.15-.32h0Z" style="fill: url(#linear-gradient-55);"/>
      <path d="M65.74,722.33c-1.89-12.58-1.21-25.43-.15-38.05s2.43-25.63,3.87-38.41c3.15-28.06,7.32-56,12.64-83.72,4.52-23.58,9.8-48.45,6.95-72.56-2.99-25.31-13.11-49.04-21.5-72.88-8.94-25.43-14.82-51.64-18.66-78.3-2.04-14.14-3.5-28.37-4.48-42.63-.92-13.48-1.96-27.25-1.06-40.75,1.88-27.99,12.54-54.55,23.81-79.92s23.1-50.98,32.95-77.21,17.75-51.61,20.81-78.72c1.55-13.73,1.62-27.64,.33-41.39s-4.48-27.52-7.94-41.09c-1.74-6.81-3.51-13.62-5.2-20.44-.19-.77-1.38-.44-1.19,.33,3.46,13.97,7.51,27.85,10.31,41.98s3.95,29.17,3.61,43.87c-.65,27.9-7.81,55.23-16.95,81.44-9.57,27.45-21.28,54.07-33.27,80.54-10.96,24.19-21.96,48.87-26.61,75.19-2.25,12.73-2.31,25.37-1.81,38.24,.54,13.77,1.53,27.53,3.01,41.23,2.88,26.68,7.34,53.48,15,79.24,7.44,25.03,18.51,48.92,24.51,74.38,2.91,12.35,4.2,24.7,3.57,37.38s-2.7,26.18-5.03,39.11c-4.74,26.32-9.54,52.55-12.93,79.1-1.73,13.51-3.11,27.06-4.5,40.61-1.28,12.45-2.57,24.95-2.47,37.49,.04,5.45,.39,10.88,1.2,16.27,.12,.78,1.3,.45,1.19-.33h0Z" style="fill: url(#linear-gradient-56);"/>
      <path d="M63.36,720.16c-3.17-25.32,1.06-51.74,3.92-76.92,3.2-28.1,7.49-56.05,12.62-83.86,4.32-23.45,9.12-48.18,6-72.08-3.31-25.34-14.1-49.04-22.92-72.78-9.51-25.59-15.69-52.02-19.63-79.01-2.07-14.18-3.53-28.45-4.5-42.75-.91-13.5-1.98-27.31-1.08-40.83,1.86-27.86,12.91-54.17,24.29-79.31s22.95-50.74,32.24-77.04,16.43-52.08,18.83-79.25-2-55.66-9.3-82.97c-1.81-6.76-3.65-13.51-5.41-20.28-.2-.79-1.43-.45-1.22,.34,3.6,13.87,7.75,27.64,10.77,41.66s4.6,29.04,4.65,43.72c.1,27.64-6.06,55-14.42,81.21-8.79,27.57-20.02,54.29-32.05,80.58-11.01,24.06-22.45,48.42-27.46,74.57-2.47,12.92-2.6,25.75-2.11,38.85s1.45,27.12,2.87,40.62c2.82,26.76,7.29,53.66,15.16,79.43,7.69,25.16,19.33,48.99,26.1,74.44,3.2,12.02,4.99,24.09,4.73,36.55s-2,25.98-4.12,38.81c-4.33,26.24-9.3,52.31-12.79,78.69-1.82,13.76-3.32,27.56-4.72,41.37-1.29,12.68-2.61,25.39-2.71,38.15-.05,6.05,.21,12.08,.96,18.09,.1,.8,1.37,.81,1.27,0h0Z" style="fill: url(#linear-gradient-57);"/>
      <path d="M60.96,717.83c-2.64-26.04,1.31-52.89,4.33-78.75,3.29-28.09,7.77-56,12.67-83.85,4.09-23.29,8.36-47.93,4.66-71.54-4-25.51-15.55-49.21-24.81-73.08-9.79-25.22-16.04-51.38-19.99-78.12-2.07-14.05-3.53-28.19-4.49-42.36-.91-13.41-1.96-27.14-1.16-40.57,1.65-27.76,13.01-53.86,24.49-78.78,11.61-25.19,22.86-50.45,31.64-76.8s15.49-53.4,17.15-81.12-3.47-55.65-11.07-82.84c-1.88-6.71-3.78-13.4-5.61-20.12-.22-.81-1.48-.47-1.26,.35,3.75,13.77,8,27.44,11.22,41.35s5.24,28.91,5.69,43.58c.87,28.07-4.56,56.06-12.47,82.88-8.19,27.76-19.09,54.64-31.23,80.89-11.04,23.85-22.75,47.93-27.72,73.93-2.46,12.85-2.44,25.63-1.94,38.66,.51,13.45,1.43,26.89,2.85,40.28,2.81,26.5,7.29,53.17,15.34,78.62,7.88,24.94,19.85,48.38,27.34,73.45,3.57,11.96,5.89,24.01,5.99,36.52s-1.39,26.2-3.35,39.13c-4,26.54-9.13,52.88-12.72,79.49-3.56,26.43-7.2,53.37-7.59,80.07-.09,6.26,.1,12.51,.73,18.73,.08,.83,1.39,.84,1.31,0h0Z" style="fill: url(#linear-gradient-58);"/>
      <path d="M58.56,715.5c-2.11-26.75,1.56-54.06,4.75-80.59,3.4-28.26,8.13-56.29,12.77-84.36,3.82-23.08,7.6-47.7,3.16-70.96-4.83-25.27-16.74-48.58-26.34-72.24-10.16-25.03-16.59-51.08-20.59-77.77-2.11-14.08-3.56-28.26-4.52-42.47s-2.01-27.7-1.13-41.39c1.78-27.63,13.59-53.42,25.21-78.12s22.73-50.24,30.94-76.67c8.23-26.49,14.1-53.89,14.97-81.69,.88-28.05-4.83-55.06-12.64-81.83-2.01-6.9-4.07-13.79-6.04-20.71-.24-.83-1.54-.48-1.3,.36,7.95,27.91,16.7,55.27,18.41,84.47,1.66,28.34-2.96,56.84-10.36,84.13-7.55,27.84-18.03,54.79-30.26,80.89-11.09,23.66-23.13,47.45-28.19,73.29-2.46,12.58-2.42,25.09-1.96,37.85,.49,13.75,1.42,27.48,2.87,41.17,2.82,26.52,7.37,53.24,15.75,78.61s20.42,47.76,28.51,72.46c3.94,12,6.68,24.13,7.06,36.79s-.83,25.6-2.55,38.26c-3.65,26.91-8.94,53.58-12.63,80.5s-7.2,53.7-7.76,80.61c-.14,6.47,0,12.95,.51,19.4,.07,.86,1.41,.86,1.35,0h0Z" style="fill: url(#linear-gradient-59);"/>
      <path d="M56.16,713.16c-1.57-27.45,1.82-55.23,5.18-82.44s8.38-56.13,12.73-84.18c3.56-22.93,6.83-47.47,1.89-70.44-5.42-25.16-17.92-48.28-27.89-71.8-10.76-25.37-17.44-51.88-21.49-79.1-2.14-14.37-3.57-28.85-4.48-43.35-.84-13.39-1.91-27.14-.91-40.54,2.02-27.11,14.05-52.24,25.65-76.37,12.01-24.99,22.79-50.34,30.48-77.03,7.7-26.71,12.73-54.39,12.79-82.25,.06-28.01-6.31-54.94-14.42-81.58-2.09-6.85-4.21-13.68-6.25-20.54-.25-.85-1.59-.49-1.33,.37,8.25,27.71,17.41,55.01,19.91,84.01,2.44,28.36-1.28,57.09-8.02,84.63s-16.88,54.96-29.18,80.91c-11,23.19-23.21,46.32-28.64,71.61-2.71,12.65-2.78,25.2-2.35,38.07,.46,13.79,1.34,27.57,2.76,41.29,2.76,26.61,7.33,53.42,15.9,78.82s21.15,47.87,29.98,72.52c4.35,12.14,7.57,24.39,8.22,37.31,.62,12.25-.27,24.55-1.69,36.72-3.16,27.01-8.57,53.75-12.36,80.68-3.84,27.32-7.39,54.99-8.13,82.59-.18,6.7-.11,13.4,.27,20.1,.05,.89,1.44,.89,1.38,0h0Z" style="fill: url(#linear-gradient-60);"/>
      <path d="M53.77,710.83c-1.05-28.39,2.13-56.94,5.71-85.07,3.57-28.05,8.64-55.86,12.65-83.85,3.28-22.92,6.12-47.7,.26-70.44-6.37-24.71-18.95-47.26-29.21-70.44-11.16-25.21-18.03-51.64-22.13-78.87-2.15-14.24-3.56-28.59-4.47-42.96-.84-13.32-1.88-26.99-1.01-40.33,1.8-27.26,14.32-52.38,26.16-76.49,12.18-24.8,22.72-50.04,29.9-76.78,7.3-27.19,11.55-55.37,10.81-83.57s-7.78-54.81-16.2-81.33c-2.16-6.79-4.35-13.57-6.46-20.38-.27-.87-1.64-.5-1.37,.38,8.56,27.52,18.14,54.74,21.4,83.55,3.24,28.63,.37,57.86-5.85,85.89-6.2,27.94-15.83,55.03-28.23,80.8-11.17,23.22-23.89,46.31-29.29,71.74-2.68,12.6-2.59,25.12-2.17,37.93,.46,13.68,1.32,27.34,2.75,40.96,2.78,26.59,7.42,53.42,16.31,78.71,8.64,24.58,21.73,47.27,31.11,71.54,4.54,11.75,8.18,23.69,9.21,36.29,1.03,12.56,.35,25.24-.93,37.76-2.77,26.92-8.16,53.57-12,80.35-3.94,27.49-7.42,55.23-8.36,83.01-.25,7.2-.26,14.4,0,21.59,.03,.91,1.46,.92,1.42,0h0Z" style="fill: url(#linear-gradient-61);"/>
      <path d="M51.37,708.5c-.98-57.09,10.9-113.01,18.52-169.28,3.11-22.99,5.63-47.96-.66-70.65-6.83-24.68-19.95-47.08-30.65-70.17-11.58-24.99-18.73-51.22-22.94-78.39-2.21-14.27-3.66-28.65-4.57-43.06-.85-13.38-1.86-27.1-1.11-40.5,1.53-27.42,14.56-52.53,26.65-76.6,12.35-24.6,22.68-49.73,29.36-76.51,6.83-27.42,10.3-55.85,8.84-84.11-1.45-28.21-9.2-55.19-18.02-81.85-2.23-6.74-4.49-13.46-6.68-20.21-.29-.89-1.7-.51-1.41,.39,8.81,27.16,18.75,54.11,22.81,82.51s2.18,59.01-3.56,87.74-14.98,55.49-27.62,81.29c-11.19,22.84-24.06,45.47-29.5,70.56-2.78,12.81-2.56,25.61-2.12,38.64,.46,13.73,1.34,27.44,2.79,41.1,2.83,26.59,7.61,53.45,16.91,78.61s22.63,47.04,32.49,71.22c4.73,11.6,8.57,23.39,9.8,35.91,1.23,12.47,.74,25.07-.38,37.53-2.43,26.85-7.79,53.44-11.66,80.1s-7.43,55.46-8.51,83.38c-.29,7.45-.37,14.9-.24,22.36,.02,.94,1.48,.94,1.46,0h0Z" style="fill: url(#linear-gradient-62);"/>
      <path d="M48.97,706.17c.04-29.33,2.59-58.55,6.45-87.61,3.7-27.82,8.92-55.44,12.4-83.29,2.9-23.24,4.95-48.6-2.23-71.29-8.02-25.34-22.13-48.13-33.39-72.05-12.16-25.8-19.12-53.32-23.05-81.5-2.04-14.59-3.31-29.29-4.05-44-.7-13.81-1.85-28.11,.16-41.85,3.8-25.91,17.02-49.2,28.72-72.2s21.04-47.62,26.77-73.2c6.06-27.02,8.56-54.97,6.48-82.61-2.16-28.64-10.71-55.9-20.02-82.91-2.26-6.56-4.55-13.12-6.77-19.7-.31-.91-1.76-.52-1.45,.4,9.16,27.13,19.54,54.08,24.35,82.42s3.84,58.37-1.07,86.93c-4.58,26.68-12.61,52.95-24.35,77.36-10.91,22.68-24.25,44.5-31.07,68.91-3.43,12.27-4.23,24.35-3.96,37.03,.31,14.24,1.02,28.49,2.34,42.67,2.56,27.49,7.17,55.25,16.54,81.3,8.93,24.81,22.93,47.3,33.73,71.27,5.53,12.27,10.38,24.89,12.09,38.32,1.57,12.36,1.35,24.92,.45,37.33-1.99,27.2-7.42,54.12-11.39,81.07-4.16,28.25-7.59,56.63-8.75,85.18-.3,7.33-.44,14.66-.45,22,0,.97,1.5,.97,1.5,0h0Z" style="fill: url(#linear-gradient-63);"/>
      <path d="M61.14,706.17c.05-29.19,2.56-58.26,6.39-87.18,3.65-27.57,8.77-54.94,12.41-82.51,3.14-23.78,5.47-49.6-1.67-72.9-7.68-25.05-21.16-47.71-31.89-71.47-11.73-25.99-18.22-53.7-21.87-81.91-1.82-14.06-2.97-28.2-3.67-42.36s-1.75-27.41-.11-40.86c3.22-26.44,15.87-50.52,27.07-74.27,11.15-23.64,19.75-48.16,25-73.81s7.57-54.37,5.1-81.62c-2.56-28.24-10.95-55.36-19.97-82.1-2.21-6.56-4.46-13.12-6.66-19.68-.31-.91-1.75-.52-1.45,.4,8.99,26.84,18.82,53.59,23.88,81.53,5.13,28.31,4.72,57.52,.37,85.9s-11.73,53.49-22.85,78.37c-10.27,22.98-22.8,45.23-29.06,69.78-3.14,12.32-3.82,24.46-3.52,37.12,.33,14.12,1.02,28.24,2.27,42.31,2.4,27.03,6.67,54.28,15.41,80.04s22.01,47.38,32.39,71.37c5.33,12.32,9.94,24.96,11.54,38.35,1.51,12.62,1.14,25.46,.1,38.1-2.24,27.27-7.7,54.27-11.68,81.32-4.1,27.86-7.44,55.86-8.59,84.02-.3,7.35-.44,14.71-.45,22.07,0,.97,1.5,.97,1.5,0h0Z" style="fill: url(#linear-gradient-64);"/>
      <path d="M73.3,706.17c.05-28.77,2.47-57.43,6.22-85.93,3.64-27.67,8.74-55.12,12.56-82.77,3.23-23.38,5.83-48.67-.4-71.79-6.76-25.07-19.86-47.84-30.23-71.47-11.39-25.94-17.63-53.38-21.17-81.42-1.75-13.86-2.87-27.79-3.59-41.74s-1.8-27.66-.49-41.29c2.55-26.53,14.18-51.06,24.7-75.18,10.39-23.81,18.59-48.28,23.51-73.83,5.15-26.72,7.01-54.21,4.28-81.33-2.84-28.26-11.05-55.56-19.92-82.43-2.2-6.66-4.44-13.32-6.66-19.98-.3-.91-1.75-.52-1.45,.4,8.96,26.97,18.44,53.92,23.63,81.93s5.25,57.3,1.21,85.75c-3.75,26.45-10.82,52.54-21.01,77.24-9.74,23.6-21.65,46.55-27.25,71.63-2.81,12.56-3.17,24.96-2.82,37.78,.38,13.92,1.08,27.83,2.3,41.7,2.34,26.78,6.32,53.91,14.83,79.49,8.42,25.32,22.06,48.43,31.88,73.18,4.74,11.95,8.54,24.08,9.7,36.93,1.14,12.55,.6,25.22-.59,37.75-2.56,27.03-7.96,53.8-11.9,80.65-4.03,27.46-7.27,55.05-8.39,82.8-.3,7.31-.44,14.62-.45,21.93,0,.97,1.5,.97,1.5,0h0Z" style="fill: url(#linear-gradient-65);"/>
      <path d="M85.47,706.17c.05-28.62,2.39-57.14,6.1-85.51,3.61-27.57,8.71-54.89,12.65-82.4,3.35-23.38,6.16-48.46,.46-71.7-6.24-25.44-19.25-48.62-29.26-72.65-10.66-25.58-16.31-52.55-19.57-80-1.65-13.91-2.71-27.89-3.42-41.88-.69-13.51-1.78-27.32-.62-40.83,2.25-26.19,12.62-50.73,22.29-74.88,9.76-24.37,17.6-49.25,22.14-75.15,4.72-26.95,6.18-54.62,2.93-81.83-3.3-27.62-11.16-54.45-19.7-80.84-2.15-6.66-4.36-13.31-6.55-19.96-.3-.91-1.75-.52-1.45,.4,8.8,26.67,17.78,53.4,23.12,81.03s6.06,56.08,2.66,84.16c-3.25,26.85-9.89,53.37-19.46,78.65-9.03,23.86-20.03,47.19-25.14,72.33-2.59,12.75-2.9,25.33-2.49,38.29,.43,13.71,1.11,27.41,2.24,41.09,2.19,26.59,5.81,53.56,13.87,79.07,8,25.31,21.2,48.5,30.52,73.29,4.48,11.9,7.97,23.93,8.96,36.65s.32,25.37-.97,37.96c-2.76,26.92-8.17,53.56-12.1,80.32s-7.19,54.78-8.29,82.38c-.29,7.33-.43,14.66-.44,22,0,.97,1.5,.97,1.5,0h0Z" style="fill: url(#linear-gradient-66);"/>
      <path d="M97.63,706.17c.05-28.2,2.3-56.31,5.92-84.26,3.53-27.3,8.53-54.36,12.63-81.57,3.53-23.42,6.6-48.25,1.74-71.7-5.31-25.62-18.12-49.15-27.79-73.25-10.15-25.31-15.48-51.84-18.56-78.88-1.59-13.96-2.62-27.98-3.33-42.01s-1.75-27.04-.91-40.45c1.65-26.3,11.01-51.25,19.96-75.77,8.96-24.53,16.36-49.41,20.54-75.24s5.56-54.49,2.06-81.59c-3.57-27.65-11.2-54.62-19.6-81.14-2.14-6.76-4.34-13.51-6.55-20.25-.3-.91-1.75-.52-1.45,.4,8.77,26.78,17.42,53.7,22.85,81.39,5.5,28.04,6.58,56.4,3.42,84.79-2.95,26.51-9.16,52.66-17.93,77.84-8.4,24.13-18.45,47.88-22.85,73.18-2.21,12.72-2.3,25.29-1.86,38.16,.48,13.75,1.15,27.51,2.25,41.23,2.13,26.6,5.5,53.66,13.46,79.22,7.77,24.96,20.4,48.03,29,72.69,4.21,12.07,7.21,24.19,7.89,36.99,.66,12.53-.2,25.11-1.61,37.56-3.03,26.67-8.39,53.07-12.29,79.62s-7.01,53.98-8.08,81.17c-.29,7.28-.42,14.57-.44,21.86,0,.97,1.5,.97,1.5,0h0Z" style="fill: url(#linear-gradient-67);"/>
      <path d="M109.8,706.17c.1-55.53,9.85-109.72,18.44-164.38,3.68-23.42,6.95-48.04,2.75-71.6-4.55-25.58-16.9-49.24-26.16-73.29-9.75-25.32-14.75-51.71-17.64-78.63-1.46-13.6-2.42-27.24-3.12-40.9-.69-13.4-1.74-27-1.18-40.42,1.11-26.65,9.59-52.2,17.87-77.32,8.14-24.71,15.03-49.65,18.79-75.43s4.76-53.52,1.13-80.08c-3.86-28.23-11.44-55.87-19.88-83.03-2.03-6.52-4.11-13.01-6.22-19.5-.3-.91-1.75-.52-1.45,.4,8.68,26.73,16.97,53.65,22.47,81.24,5.53,27.71,7.17,55.57,4.52,83.71s-8.3,53.08-16.38,78.64c-7.79,24.63-17,48.99-20.76,74.67-1.88,12.89-1.74,25.62-1.24,38.59,.51,13.39,1.16,26.77,2.18,40.13,2,26.14,5.02,52.73,12.45,77.95s19.75,48.56,27.84,73.5c3.89,12,6.52,24.03,6.99,36.66,.46,12.62-.54,25.27-2.08,37.78-3.28,26.65-8.64,53.03-12.52,79.59-3.91,26.77-6.89,53.69-7.91,80.74-.26,6.98-.39,13.97-.4,20.95,0,.97,1.5,.97,1.5,0h0Z" style="fill: url(#linear-gradient-68);"/>
      <path d="M121.97,706.17c.1-55.49,9.73-109.65,18.52-164.23,3.77-23.36,7.18-47.85,3.32-71.42-4.13-25.22-15.72-48.69-24.46-72.49-9.24-25.17-13.86-51.27-16.54-77.88-1.37-13.65-2.27-27.34-2.97-41.03s-1.73-27.16-1.31-40.68c.84-26.75,8.41-52.6,15.92-78.09s13.42-49.1,16.75-74.44c3.56-27.17,4.05-54.82-.14-81.94s-11.38-54.68-19.51-81.35c-1.99-6.51-4.04-13-6.13-19.48-.3-.92-1.74-.52-1.45,.4,8.52,26.43,16.38,53.11,21.94,80.34,5.68,27.86,7.91,55.74,5.68,84.12-2.1,26.66-7.42,53-14.72,78.71-6.97,24.52-15.08,48.85-18.39,74.23-1.72,13.24-1.5,26.31-.97,39.61s1.17,26.86,2.14,40.26c1.87,25.91,4.57,52.29,11.61,77.37,6.96,24.81,18.58,47.99,26.13,72.6,3.77,12.29,6.19,24.62,6.46,37.5s-.84,24.96-2.45,37.32c-3.47,26.52-8.82,52.79-12.69,79.25-3.9,26.63-6.83,53.41-7.84,80.31-.26,7-.39,14.01-.4,21.02,0,.97,1.5,.97,1.5,0h0Z" style="fill: url(#linear-gradient-69);"/>
      <path d="M134.13,706.17c.11-54.74,9.26-108.3,18.29-162.11,3.95-23.55,7.67-48.08,4.39-71.94-3.47-25.17-14.51-48.77-22.84-72.56-8.8-25.15-13.09-51.08-15.57-77.54-1.28-13.7-2.12-27.43-2.8-41.17-.66-13.35-1.67-26.82-1.45-40.19,.44-27.12,7.18-53.53,13.97-79.62,6.41-24.63,12.04-49.38,14.88-74.72,3.02-26.96,3.03-54.24-1.4-81.04s-11.34-54.51-19.31-81.16c-1.95-6.51-3.97-12.99-6.04-19.46-.29-.92-1.74-.52-1.45,.4,16.86,52.67,31.63,107.43,28.26,163.19-1.61,26.65-6.4,53.02-12.91,78.88-6.24,24.8-13.45,49.45-16.28,74.95-1.49,13.41-1.18,26.68-.61,40.14,.58,13.72,1.21,27.45,2.14,41.15,1.76,25.71,4.17,51.91,10.92,76.87,6.69,24.76,17.85,48.04,24.74,72.74,3.41,12.22,5.37,24.45,5.4,37.16s-1.33,25.9-3.17,38.72c-3.71,25.86-8.87,51.48-12.63,77.34-3.82,26.23-6.66,52.61-7.64,79.11-.26,6.96-.38,13.92-.39,20.88,0,.97,1.5,.97,1.5,0h0Z" style="fill: url(#linear-gradient-70);"/>
      <path d="M146.3,706.17c.11-54.69,9.15-108.23,18.38-161.96,4.06-23.62,7.95-48.2,4.87-72.17s-13.63-48.52-21.44-72.27c-8.28-25.19-12.06-51.12-14.27-77.48-1.1-13.09-1.83-26.21-2.47-39.34s-1.62-26.72-1.59-40.05c.06-27.26,5.84-54.03,11.83-80.49,5.66-25.02,10.78-50.11,13.15-75.69,2.5-27.02,1.92-54.11-2.78-80.86-4.75-27.08-11.22-53.85-18.96-80.23-1.91-6.5-3.9-12.98-5.95-19.44-.29-.92-1.74-.52-1.45,.4,8.21,25.84,15.31,52.03,20.85,78.57,5.82,27.88,9.24,55.59,7.98,84.11-1.18,26.62-5.47,52.99-11.2,78.98s-11.8,50.09-14.08,75.74c-1.2,13.54-.74,26.95-.14,40.51s1.18,26.71,2.01,40.04c1.59,25.28,3.63,51.03,9.76,75.68,6.17,24.8,16.84,48.19,23.32,72.9,3.24,12.36,5.03,24.73,4.93,37.53s-1.59,26.04-3.52,38.92c-3.86,25.73-9.02,51.24-12.78,76.99s-6.61,52.33-7.58,78.68c-.26,6.98-.38,13.96-.4,20.95,0,.97,1.5,.97,1.5,0h0Z" style="fill: url(#linear-gradient-71);"/>
      <path d="M158.46,706.17c.11-54.35,8.9-107.61,18.33-160.97,4.15-23.46,8.19-47.75,5.7-71.63s-12.36-48.35-19.73-71.98c-7.87-25.25-11.34-51.11-13.34-77.43-1-13.14-1.67-26.31-2.28-39.47s-1.6-26.8-1.71-40.19c-.22-27.32,4.62-54.31,9.76-81.04,4.83-25.1,9.36-50.22,11.25-75.74,2-27.01,.9-53.88-3.96-80.53-4.92-26.97-11.12-53.72-18.71-80.07-1.87-6.5-3.83-12.98-5.87-19.43-.29-.92-1.74-.53-1.45,.4,8.14,25.79,14.95,51.98,20.47,78.45,5.79,27.78,9.69,55.33,8.91,83.78-.73,26.52-4.5,52.82-9.42,78.86s-10.11,50.55-11.88,76.28c-.93,13.6-.37,27.08,.26,40.68s1.18,26.79,1.95,40.18c1.46,25.3,3.19,51.07,9.04,75.8s15.94,48.04,21.8,72.69c6,25.26,4.14,50.41,.14,75.84s-9.15,50.88-12.89,76.47c-3.79,25.93-6.53,52.02-7.49,78.22-.25,6.93-.37,13.87-.39,20.81,0,.97,1.5,.97,1.5,0h0Z" style="fill: url(#linear-gradient-72);"/>
      <path d="M170.63,706.17c.12-54.07,8.69-107.11,18.31-160.16,4.28-23.61,8.53-48,6.34-72.07s-11.51-48.4-18.4-72.13c-7.33-25.26-10.27-51.07-12-77.25-.88-13.2-1.47-26.41-2.06-39.62s-1.61-26.91-1.77-40.37c-.62-52.47,14.19-103.59,17.06-155.83,1.47-26.75-.08-53.21-5.02-79.53s-11.03-53.85-18.49-80.3c-1.86-6.59-3.82-13.15-5.87-19.69-.29-.92-1.74-.53-1.45,.4,8.19,26.1,14.78,52.68,20.32,79.46,5.65,27.31,9.87,54.36,9.58,82.33-.27,26.42-3.5,52.67-7.62,78.74-3.99,25.25-8.34,50.5-9.64,76.06-1.36,26.71,1.04,53.76,2.41,80.44,1.29,25.16,2.63,50.77,7.94,75.46,5.36,24.92,15.09,48.65,20.51,73.56,5.44,25.03,3.35,49.93-.72,75.01-4.16,25.64-9.38,51.09-13.14,76.8s-6.48,51.74-7.42,77.79c-.25,6.96-.37,13.92-.39,20.88,0,.97,1.5,.97,1.5,0h0Z" style="fill: url(#linear-gradient-73);"/>
      <path d="M182.8,706.17c.12-53.56,8.39-106.17,18.17-158.68,4.43-23.78,8.93-48.25,7.16-72.54-1.8-24.74-10.5-48.46-16.92-72.23-6.83-25.29-9.32-51.06-10.81-77.14-1.5-26.15-3.02-52.44-3.69-78.62-1.33-52.49,11.07-103.99,13.03-156.3,1.02-27.3-1.14-54.06-6.32-80.86-5.15-26.64-10.82-53.21-18.06-79.37-1.82-6.59-3.76-13.14-5.79-19.66-.29-.92-1.73-.53-1.45,.4,8.04,25.81,14.31,52.12,19.77,78.58,5.66,27.44,10.4,54.59,10.62,82.69,.41,52.43-11.75,103.77-13.26,156.06-.76,26.39,1.54,52.98,2.74,79.34,1.14,24.98,2.12,50.39,6.95,74.99,4.89,24.95,14.11,48.8,19.04,73.75,4.99,25.26,2.5,50.36-1.77,75.54s-9.47,50.54-13.19,76-6.46,51.94-7.36,78.1c-.23,6.66-.34,13.32-.36,19.98,0,.97,1.5,.97,1.5,0h0Z" style="fill: url(#linear-gradient-74);"/>
      <path d="M194.96,706.17c.12-53.52,8.3-106.1,18.27-158.54,4.51-23.72,9.11-48.06,7.67-72.31s-9.81-48.98-15.75-73.09c-6.23-25.29-8.11-51.05-9.33-77-.62-13.14-1.06-26.28-1.6-39.42s-1.57-26.39-1.96-39.59c-1.54-52.26,8.44-103.88,9.15-156.04,.37-27.02-2.46-53.31-7.69-79.79s-10.68-53.08-17.82-79.19c-1.73-6.33-3.57-12.64-5.51-18.91-.28-.92-1.73-.53-1.45,.4,7.97,25.76,13.98,52.06,19.39,78.46s10.69,53.9,11.46,81.62c1.45,51.87-8.4,103.13-9.16,154.92-.39,26.56,1.9,53.19,2.93,79.72,.97,24.85,1.58,50.09,5.77,74.66,4.3,25.25,13.11,49.46,17.67,74.65,4.62,25.5,1.88,50.76-2.57,76.09-4.43,25.22-9.61,50.29-13.32,75.64s-6.41,51.66-7.31,77.67c-.23,6.68-.34,13.36-.36,20.04,0,.97,1.5,.97,1.5,0h0Z" style="fill: url(#linear-gradient-75);"/>
      <path d="M207.13,706.17c.13-53.24,8.11-105.59,18.26-157.73,4.6-23.66,9.34-47.86,8.33-72.08-1.03-24.83-8.74-48.88-14.19-72.96-5.74-25.37-7.19-51.11-8.17-77.03s-2.46-52.89-3.5-79.33c-2.05-52.08,5.55-103.79,5.17-155.81-.19-26.97-3.57-53.08-8.85-79.48-5.29-26.46-10.5-52.97-17.5-79.05-1.7-6.33-3.51-12.63-5.44-18.89-.28-.92-1.73-.53-1.45,.4,7.83,25.47,13.55,51.5,18.86,77.59,5.54,27.25,11.13,54.22,12.42,82.08,2.42,51.84-5.38,103.48-5.11,155.31,.14,26.44,2.39,52.87,3.27,79.3,.83,24.9,1.08,50.18,4.87,74.85s12.07,49.34,16.1,74.44,1.06,50.61-3.51,75.77-9.77,50.2-13.49,75.53c-3.76,25.59-6.34,51.35-7.22,77.2-.23,6.63-.33,13.27-.35,19.91,0,.97,1.5,.97,1.5,0h0Z" style="fill: url(#linear-gradient-76);"/>
      <path d="M219.29,706.17c.13-53.21,8.03-105.53,18.37-157.6,4.73-23.8,9.62-48.11,8.8-72.51-.85-25.07-8.2-49.42-13.1-73.86-5.04-25.16-5.83-50.7-6.55-76.28-.73-26.07-2.12-52.03-3.41-78.07-1.34-26.87-.96-53.79-.12-80.67,.79-25.21,2.06-50.42,1.29-75.65-.4-13.41-1.34-26.8-3.05-40.11s-4.35-25.57-6.92-38.3c-5.33-26.38-10.31-52.87-17.18-78.91-1.67-6.33-3.46-12.62-5.37-18.88-.28-.92-1.73-.53-1.45,.4,7.77,25.42,13.25,51.44,18.48,77.48s11.3,53.57,13.16,81.03c3.49,51.55-2.18,103.27-1.01,154.88,.6,26.37,2.86,52.67,3.6,79.05s.55,50.66,3.89,75.64c3.3,24.75,10.76,48.71,14.4,73.39,3.79,25.68,.66,50.99-4.06,76.34-4.71,25.28-10,50.42-13.75,75.87-3.74,25.45-6.29,51.07-7.16,76.78-.23,6.65-.33,13.31-.35,19.97,0,.97,1.5,.97,1.5,0h0Z" style="fill: url(#linear-gradient-77);"/>
      <path d="M231.46,706.17c.13-52.94,7.85-105.03,18.36-156.8,4.86-23.96,9.94-48.37,9.42-72.94-.53-24.96-7.29-49.32-11.65-73.76-4.5-25.24-4.78-50.8-5.26-76.36-.49-26.16-1.84-52.15-3.41-78.26-1.6-26.68-2.05-53.41-2.05-80.13,0-25.11,.58-50.24-.74-75.33-.68-12.92-1.81-25.81-3.62-38.62-1.87-13.29-4.8-26.34-7.47-39.48-5.36-26.31-10.11-52.77-16.85-78.77-1.64-6.32-3.41-12.61-5.31-18.86-.28-.92-1.73-.53-1.45,.4,7.71,25.38,12.96,51.39,18.11,77.38s11.5,53.42,13.89,80.74c2.22,25.33,2.12,50.74,1.98,76.14s-.02,51.98,1.06,77.95c1.09,26.37,3.4,52.62,4,79.02,.57,25.22,.02,50.76,2.87,75.86,2.85,25.06,9.85,49.42,12.99,74.44s-.24,50.48-5.04,75.47c-4.85,25.23-10.17,50.33-13.91,75.76-3.72,25.29-6.22,50.76-7.08,76.31-.22,6.61-.33,13.22-.35,19.83,0,.97,1.5,.97,1.5,0h0Z" style="fill: url(#linear-gradient-78);"/>
      <path d="M243.62,706.17c.14-52.6,7.66-104.39,18.3-155.8,4.92-23.79,10.1-47.93,10.09-72.34s-6.27-49.78-10.15-74.46c-3.97-25.25-3.77-50.74-4.02-76.23s-1.49-51.79-3.36-77.72-3.21-53.74-4.04-80.64c-.77-25.12-.91-50.26-2.79-75.33-.97-12.87-2.36-25.71-4.37-38.46-2.08-13.22-5.14-26.23-7.82-39.33-5.36-26.24-9.9-52.67-16.51-78.64-1.61-6.32-3.36-12.6-5.24-18.84-.28-.92-1.73-.53-1.45,.4,7.65,25.34,12.68,51.33,17.74,77.28,5.23,26.78,11.66,53.29,14.59,80.46,2.72,25.24,3.27,50.59,3.89,75.94,.64,26.18,1.65,52.35,3.25,78.49,1.6,26.27,3.94,52.41,4.39,78.74,.42,25.05-.48,50.37,1.85,75.35s8.93,50.08,11.53,75.4c2.59,25.27-1.15,50.19-6.06,74.95-4.96,25.04-10.28,49.97-14,75.23s-6.15,50.45-7,75.85c-.22,6.56-.32,13.13-.34,19.69,0,.97,1.5,.97,1.5,0h0Z" style="fill: url(#linear-gradient-79);"/>
      <path d="M255.79,706.17c.14-52.57,7.6-104.33,18.43-155.68,5.1-24.15,10.48-48.64,10.56-73.44s-5.9-50.72-9.1-75.97c-3.15-24.82-2.29-49.9-2.31-74.86-.02-25.84-1.33-51.39-3.49-77.13-2.22-26.43-4.24-52.87-5.86-79.34-1.53-25.01-2.39-50.06-4.86-75-1.27-12.82-2.92-25.61-5.13-38.3-2.33-13.4-5.58-26.61-8.29-39.93-5.29-25.93-9.58-52.09-16.02-77.77-1.58-6.31-3.31-12.59-5.18-18.83-.28-.92-1.73-.53-1.45,.4,7.6,25.3,12.41,51.28,17.38,77.19s11.78,53.16,15.25,80.18c3.2,24.87,4.45,49.89,5.8,74.91,1.4,26.01,3.26,51.99,5.33,77.95,2.08,26.06,4.56,52,4.9,78.16,.33,24.89-.87,49.95,.7,74.81,1.63,25.66,7.69,50.77,9.98,76.36,2.26,25.27-1.47,50.08-6.47,74.82s-10.52,50.17-14.3,75.56c-3.75,25.23-6.21,50.66-7.05,76.15-.22,6.58-.32,13.17-.34,19.76,0,.97,1.5,.97,1.5,0h0Z" style="fill: url(#linear-gradient-80);"/>
      <path d="M267.96,706.17c.14-52.31,7.44-103.83,18.42-154.88,5.23-24.3,10.79-48.91,11.18-73.87s-4.97-50.63-7.6-75.86c-2.59-24.89-1.23-49.98-1.04-74.95,.2-25.91-1.12-51.49-3.62-77.28s-5.31-52.54-7.72-78.84c-2.28-24.89-3.88-49.85-6.94-74.66-1.58-12.77-3.49-25.49-5.9-38.13-2.54-13.33-5.88-26.49-8.58-39.79-5.26-25.88-9.35-52.01-15.67-77.66-1.56-6.31-3.26-12.58-5.12-18.81-.28-.92-1.72-.53-1.45,.4,7.54,25.26,12.14,51.23,17.02,77.09s11.65,52.19,15.68,78.62,5.83,50.52,7.95,75.88c2.16,25.86,4.84,51.67,7.41,77.5,2.59,26.02,5.2,51.93,5.44,78.1,.22,24.99-1.35,50.07-.29,75.04,1.08,25.55,6.48,50.65,8.34,76.13,1.85,25.44-2.09,50.36-7.25,75.21-5.21,25.1-10.69,50.09-14.47,75.46-3.73,25.08-6.14,50.34-6.97,75.68-.21,6.54-.32,13.08-.33,19.62,0,.97,1.5,.97,1.5,0h0Z" style="fill: url(#linear-gradient-81);"/>
      <path d="M280.12,706.17c.15-52.54,7.49-104.24,18.72-155.48,5.31-24.22,10.91-48.71,11.51-73.6,.62-25.75-4.3-51.25-6.26-76.85-1.9-24.85,.04-49.86,.42-74.74,.39-25.74-1.05-51.09-3.9-76.67-2.91-26.14-6.39-52.2-9.56-78.31-2.95-24.36-5.28-48.79-8.87-73.08-1.91-12.89-4.12-25.73-6.76-38.49-2.75-13.26-6.14-26.37-8.83-39.65-5.23-25.83-9.12-51.93-15.33-77.55-1.53-6.31-3.21-12.57-5.06-18.8-.27-.92-1.72-.53-1.45,.4,7.49,25.22,11.89,51.17,16.67,77.01,4.81,26,11.54,51.58,16.11,77.62,4.44,25.29,7.21,50.78,10.1,76.27,2.89,25.46,6.31,50.85,9.36,76.29,3.09,25.79,5.92,51.52,6.1,77.53,.17,24.81-1.61,49.62-1.33,74.42,.3,25.6,5.06,50.86,6.63,76.37s-2.41,51.22-7.77,76.53c-5.3,24.97-10.84,49.83-14.64,75.09-3.78,25.17-6.2,50.55-7.03,75.99-.21,6.56-.32,13.12-.34,19.68,0,.97,1.5,.97,1.5,0h0Z" style="fill: url(#linear-gradient-82);"/>
      <path d="M292.29,706.17c.15-52.28,7.35-103.73,18.71-154.69,5.44-24.37,11.21-48.98,12.12-74.03,.94-25.65-3.36-51.16-4.73-76.72-1.33-24.92,1.11-49.92,1.69-74.85,.59-25.8-.91-51.17-4.13-76.76-3.23-25.61-7.32-51.1-11.19-76.62-3.73-24.65-6.86-49.39-11.14-73.96-4.56-26.18-11.38-51.79-16.62-77.82-5.19-25.78-8.87-51.86-14.97-77.45-1.5-6.3-3.17-12.57-5-18.78-.27-.92-1.72-.53-1.45,.4,7.44,25.19,11.64,51.12,16.32,76.92,4.71,25.99,11.49,51.47,16.61,77.37,4.9,24.77,8.44,49.74,12,74.73s7.77,50.46,11.33,75.75c3.68,26.16,6.83,52.29,6.92,78.74,.09,24.92-2.05,49.76-2.3,74.66-.26,25.48,3.84,50.72,4.97,76.14,1.16,26.1-3.05,51.49-8.57,76.91-5.42,24.93-11.01,49.76-14.81,75-3.76,25.01-6.13,50.23-6.95,75.52-.21,6.51-.31,13.03-.33,19.54,0,.97,1.5,.97,1.5,0h0Z" style="fill: url(#linear-gradient-83);"/>
      <path d="M304.45,706.17c.16-52.54,7.41-104.16,19.03-155.33,5.57-24.51,11.43-49.25,12.48-74.46,1.07-25.96-2.74-51.84-3.33-77.76s2.41-49.7,3.1-74.53c.69-25.1-.96-49.74-4.46-74.59-3.61-25.64-8.4-51.09-13-76.56-4.42-24.44-8.32-48.96-13.23-73.31-5.24-25.98-12.43-51.52-17.61-77.5-5.13-25.73-8.63-51.79-14.62-77.35-1.48-6.3-3.12-12.56-4.95-18.77-.27-.92-1.72-.53-1.45,.4,7.39,25.16,11.4,51.08,15.97,76.85,4.61,25.99,11.4,51.37,17.07,77.12,5.43,24.63,9.77,49.45,14.06,74.3,4.29,24.83,9.12,49.56,13.15,74.43,4.18,25.74,7.66,51.55,7.78,77.67,.12,24.7-2.06,49.26-3.16,73.92-1.15,25.77,2.32,51.42,3.15,77.15s-3.33,51.88-9,77.53c-5.54,25.05-11.28,49.99-15.14,75.37-3.82,25.11-6.2,50.44-7.01,75.83-.21,6.53-.31,13.07-.33,19.61,0,.97,1.5,.97,1.5,0h0Z" style="fill: url(#linear-gradient-84);"/>
      <path d="M316.62,706.17c.16-52.29,7.28-103.66,19.04-154.54,5.75-24.9,11.85-49.99,13.14-75.61,1.3-25.88-1.87-51.76-1.79-77.64,.07-24.91,3.54-49.74,4.37-74.64,.84-25.15-1.02-49.8-4.93-74.64s-9.46-50.81-14.77-76.1-9.83-48.74-15.41-72.98c-5.98-25.92-13.53-51.51-18.64-77.62-4.96-25.39-8.25-51.11-14.09-76.33-1.44-6.22-3.05-12.4-4.84-18.53-.27-.92-1.72-.53-1.45,.4,7.25,24.82,11.08,50.41,15.47,75.85,4.5,26.07,11.21,51.41,17.46,77.08,5.92,24.32,11.12,48.78,16.07,73.31,5.03,24.9,10.61,49.68,15.21,74.66,4.71,25.63,8.56,51.42,8.69,77.53,.12,24.8-2.3,49.44-4.03,74.15s1.01,51.77,1.4,77.66c.39,26.24-3.9,51.65-9.65,77.17s-11.58,50.4-15.48,76.02-6.13,50.12-6.93,75.35c-.21,6.49-.31,12.97-.33,19.46,0,.97,1.5,.97,1.5,0h0Z" style="fill: url(#linear-gradient-85);"/>
      <path d="M328.79,706.17c.17-52.83,7.47-104.58,19.55-155.93,5.83-24.8,11.92-49.8,13.35-75.34,1.45-26.06-1.1-52.17-.23-78.24,.82-24.7,4.7-49.22,5.61-73.94,.92-24.87-1.17-49.21-5.44-73.7-4.43-25.4-10.49-50.48-16.49-75.55-5.78-24.13-11.3-48.31-17.54-72.34-6.62-25.46-14.37-50.72-19.4-76.56s-8.09-51.54-13.88-76.98c-1.42-6.22-3.01-12.39-4.79-18.52-.27-.93-1.72-.53-1.45,.4,7.21,24.8,10.86,50.37,15.13,75.79,2.18,12.96,4.54,25.89,7.63,38.66,3.1,12.79,6.79,25.45,10.18,38.17,6.51,24.42,12.61,48.92,18.34,73.54,5.7,24.48,11.89,48.85,16.94,73.48,5.17,25.2,9.36,50.65,9.54,76.43,.17,24.53-2.3,48.93-4.72,73.31-2.56,25.76-.6,51.6-.54,77.41,.06,26.66-4.19,52.39-10.13,78.32-5.82,25.39-11.87,50.64-15.84,76.41s-6.2,50.32-7,75.66c-.21,6.51-.31,13.02-.33,19.53,0,.97,1.5,.97,1.5,0h0Z" style="fill: url(#linear-gradient-86);"/>
      <path d="M340.95,706.17c.17-52.48,7.32-103.89,19.5-154.88,5.88-24.62,12.05-49.37,13.96-74.69,1.98-26.33-.02-52.8,1.46-79.15,1.39-24.87,5.77-49.45,6.84-74.37s-1.21-49.23-5.89-73.69c-4.84-25.34-11.5-50.28-18.18-75.18-6.45-24.03-12.82-48.07-19.76-71.97-7.33-25.25-15.31-50.39-20.27-76.24-4.9-25.57-7.83-51.49-13.52-76.91-1.39-6.22-2.97-12.39-4.74-18.51-.27-.93-1.72-.53-1.45,.4,7.16,24.77,10.65,50.34,14.8,75.73,2.12,12.94,4.44,25.86,7.52,38.6,3.09,12.77,6.93,25.38,10.59,38,7.06,24.33,14.07,48.65,20.53,73.14,6.42,24.33,13.25,48.56,18.8,73.12,5.66,25.07,10.23,50.48,10.4,76.25s-2.62,49.16-5.59,73.59c-3.16,26.05-1.82,52.28-2.29,78.45s-5.03,52.14-11.07,77.9c-5.9,25.18-11.96,50.25-15.91,75.84-3.84,24.89-6.13,50-6.92,75.17-.2,6.46-.3,12.92-.32,19.38,0,.97,1.5,.97,1.5,0h0Z" style="fill: url(#linear-gradient-87);"/>
      <path d="M353.12,706.17c.09-26.08,1.61-52.15,4.91-78.03s8.84-52.38,15.12-78.24c6.01-24.76,12.24-49.66,14.23-75.14,2.06-26.3,.8-52.75,3.09-79.04,2.17-24.86,6.91-49.33,7.99-74.32,1.07-24.88-1.69-49.11-6.84-73.42-5.24-24.75-12.34-49.05-19.55-73.27-7.1-23.84-14.3-47.62-21.92-71.3-8.06-25.03-16.22-50.06-21.11-75.94s-7.56-51.45-13.17-76.84c-1.37-6.21-2.93-12.38-4.69-18.5-.27-.93-1.71-.53-1.45,.4,7.12,24.75,10.44,50.3,14.48,75.68,2.06,12.92,4.33,25.82,7.4,38.55,3.11,12.86,7.1,25.52,11.06,38.15,15.02,47.86,30.98,95.58,43.07,144.3,6.11,24.61,11.14,49.72,11.48,75.16,.34,24.85-2.66,49.62-6.23,74.17s-3.35,51.55-4.18,77.42c-.85,26.68-5.29,52.41-11.44,78.34s-12.28,50.5-16.34,76.22c-3.98,25.22-6.31,50.69-7.1,76.21-.2,6.48-.3,12.96-.32,19.45,0,.97,1.5,.97,1.5,0h0Z" style="fill: url(#linear-gradient-88);"/>
      <path d="M365.28,706.17c.09-25.91,1.58-51.8,4.85-77.5,3.38-26.6,8.97-52.72,15.39-78.74,6.21-25.15,12.62-50.43,14.82-76.32,2.23-26.25,1.73-52.67,4.77-78.86,1.47-12.67,3.96-25.21,5.67-37.85s2.88-24.23,3.41-36.42c1.07-24.59-2.04-48.5-7.54-72.44-5.66-24.66-13.33-48.81-21.18-72.85-7.73-23.65-15.78-47.15-24.1-70.61s-16.97-49.26-21.78-74.94c-4.82-25.75-7.39-51.89-12.95-77.51-1.35-6.21-2.89-12.38-4.64-18.49-.27-.93-1.71-.53-1.45,.4,7.15,24.97,10.29,50.76,14.27,76.36,2.01,12.91,4.25,25.79,7.34,38.49s7.14,25.2,11.33,37.6c15.99,47.32,33.73,94.09,46.79,142.36,6.6,24.38,12.13,49.43,12.62,74.78,.49,24.88-2.74,49.72-6.84,74.21s-4.82,51.18-6.06,76.94c-.66,13.64-1.73,27.19-3.98,40.67-2.17,13.04-5.11,25.94-8.21,38.78-6.18,25.54-12.6,50.94-16.71,76.92-3.96,25.06-6.24,50.36-7.02,75.72-.2,6.43-.29,12.87-.32,19.3,0,.97,1.5,.97,1.5,0h0Z" style="fill: url(#linear-gradient-89);"/>
      <path d="M377.45,706.17c.09-26.25,1.59-52.5,4.98-78.53,3.47-26.64,9.22-52.76,15.75-78.8,6.31-25.19,12.75-50.5,15.16-76.43,2.47-26.68,2.7-53.56,6.72-80.08,3.69-24.35,8.86-48.2,9.89-72.91,1.03-24.71-2.62-48.73-8.63-72.65-12.17-48.43-30.97-95.17-49-141.64-9.42-24.27-17.66-48.72-22.36-74.39s-7.05-51.27-12.42-76.59c-1.35-6.38-2.91-12.71-4.7-18.98-.26-.93-1.71-.53-1.45,.4,7.1,24.9,10.08,50.64,13.93,76.18,3.91,25.97,9.82,50.98,18.74,75.7,8.42,23.32,18.15,46.14,26.5,69.49,8.4,23.51,16.98,46.98,24.02,70.94,7.13,24.23,13.27,49.32,14,74.68,.72,25.03-2.75,50.04-7.36,74.58-4.73,25.19-6.26,50.52-7.93,76.05-.89,13.72-2.04,27.38-4.36,40.94-2.21,12.92-5.14,25.71-8.25,38.44-6.3,25.73-12.97,51.3-17.2,77.48s-6.39,50.56-7.2,76.02c-.21,6.7-.32,13.4-.34,20.11,0,.97,1.5,.97,1.5,0h0Z" style="fill: url(#linear-gradient-90);"/>
      <path d="M389.62,706.17c.1-26.31,1.62-52.61,5.04-78.7,3.5-26.72,9.38-52.87,16.03-78.96,6.43-25.24,12.89-50.59,15.6-76.55,2.78-26.61,3.76-53.44,8.48-79.83,4.34-24.3,9.85-48.09,10.91-72.87,1.06-24.65-3-48.59-9.4-72.33-12.87-47.73-32.73-93.41-52.05-138.79-10.39-24.4-18.96-49.06-23.7-75.21-4.65-25.66-6.86-51.72-12.19-77.26-1.33-6.38-2.87-12.71-4.65-18.97-.26-.93-1.71-.53-1.45,.4,7.12,25.12,9.94,51.1,13.71,76.86,3.79,25.82,9.49,50.77,18.9,75.16,9.01,23.34,19.78,45.94,28.88,69.25s18.06,46.25,25.52,69.94,14.17,49.03,15.03,74.3c.85,25.03-2.89,50.08-8,74.52-5.29,25.29-7.64,50.7-9.8,76.41-1.13,13.41-2.41,26.77-4.75,40.02-2.3,13.05-5.31,25.96-8.51,38.82-6.41,25.77-13.22,51.37-17.49,77.61-4.11,25.22-6.45,50.7-7.27,76.23-.21,6.65-.32,13.3-.34,19.95,0,.97,1.5,.97,1.5,0h0Z" style="fill: url(#linear-gradient-91);"/>
      <path d="M401.78,706.17c.1-26.87,1.65-53.73,5.25-80.37,3.59-26.53,9.61-52.44,16.3-78.33s13-50.69,16-76.72c3.06-26.56,4.85-53.32,10.32-79.54,5-23.98,10.69-47.49,11.75-72.08s-3.43-48.47-10.22-72.01c-13.74-47.71-35-92.83-55.81-137.75-11.09-23.93-19.64-48.23-24.31-74.24-4.65-25.88-6.67-52.17-11.96-77.94-1.31-6.38-2.84-12.7-4.61-18.97-.26-.93-1.71-.53-1.45,.4,7.09,25.11,9.74,51.08,13.4,76.83,3.68,25.92,9.16,51.08,19.14,75.36,9.29,22.61,20.83,44.21,30.36,66.71,9.84,23.26,19.62,46.59,27.7,70.54,8.02,23.77,15.15,48.74,16.28,73.94,1.12,25.04-2.85,50.14-8.43,74.48s-9.06,50.3-11.69,75.94c-1.4,13.58-2.82,27.14-5.29,40.58-2.37,12.94-5.41,25.74-8.62,38.49-6.48,25.7-13.43,51.22-17.8,77.39-4.27,25.55-6.65,51.39-7.46,77.28-.21,6.67-.31,13.34-.34,20.02,0,.97,1.5,.97,1.5,0h0Z" style="fill: url(#linear-gradient-92);"/>
      <path d="M413.95,706.17c.11-27.13,1.65-54.26,5.35-81.15s9.77-52.12,16.51-77.85c6.58-25.14,13.08-50.32,16.42-76.14,3.49-27,6.01-54.2,12.38-80.73,5.72-23.82,11.55-47.34,12.52-71.96,.97-24.53-4.09-48.34-11.29-71.68-7.34-23.81-16.87-46.88-26.96-69.64-10.11-22.79-21.53-44.75-32.68-67.03-5.74-11.45-11.1-23.12-15.25-35.25s-7.24-25.45-9.51-38.47c-4.52-25.83-6.37-52.06-11.59-77.78-1.28-6.31-2.78-12.56-4.52-18.76-.26-.93-1.71-.53-1.45,.4,7.04,25.06,9.55,50.98,13.07,76.69,3.48,25.39,8.5,50.33,18.62,73.99s22.63,44.32,32.98,66.95c10.54,23.05,20.86,46.24,29.43,70.1,8.46,23.55,16.15,48.46,17.56,73.59s-2.73,49.75-8.63,73.77c-3.13,12.76-6.33,25.39-8.51,38.36-2.15,12.76-3.75,25.6-5.31,38.45-1.64,13.51-3.22,27.03-5.77,40.41s-5.62,26-8.92,38.88c-6.6,25.72-13.68,51.28-18.11,77.5s-6.69,51.53-7.5,77.48c-.21,6.62-.31,13.24-.33,19.86,0,.97,1.5,.97,1.5,0h0Z" style="fill: url(#linear-gradient-93);"/>
      <path d="M426.11,706.17c.11-27.24,1.64-54.49,5.39-81.48,3.7-26.61,10.08-52.56,16.97-78.5,6.81-25.65,13.32-51.29,17.05-77.6s7.15-53.23,14.15-79.17c6.41-23.75,12.47-47.35,13.26-72.09,.78-24.33-4.87-48.09-12.43-71.07-7.81-23.76-17.86-46.74-28.57-69.32-5.25-11.07-10.54-22.14-16.37-32.91-5.95-10.99-12.33-21.73-18.28-32.72s-11.8-22.89-15.98-35.06-7.21-25.45-9.44-38.47c-4.41-25.82-6.1-52.05-11.23-77.75-1.26-6.31-2.74-12.56-4.48-18.76-.26-.93-1.71-.53-1.45,.4,13.91,49.74,9.96,103.18,31.53,150.96,10.18,22.55,23.95,43.23,34.87,65.41,11.24,22.82,22.12,45.88,31.19,69.67,8.77,23,16.8,47.42,18.75,72.1,2.01,25.33-2.44,50.95-8.96,75.35-3.39,12.7-6.95,25.26-9.47,38.17-2.52,12.88-4.46,25.87-6.3,38.86-1.88,13.27-3.6,26.56-6.21,39.72-2.57,12.96-5.73,25.79-9.05,38.57-6.67,25.63-13.88,51.1-18.42,77.22-4.5,25.95-6.9,52.23-7.71,78.54-.2,6.64-.3,13.29-.33,19.93,0,.97,1.5,.97,1.5,0h0Z" style="fill: url(#linear-gradient-94);"/>
    </g>
  </g>
</svg>