<svg width="70" height="70" viewBox="0 0 70 70" fill="none" xmlns="http://www.w3.org/2000/svg">
<path d="M14.8167 0H17.9725V3.11792H20.86V0H24.0158V9.43833H20.86V6.27958H17.9725V9.43833H14.8196V0H14.8167ZM28.1633 3.12958H25.3867V0H34.0988V3.12958H31.3192V9.43833H28.1633V3.12958V3.12958ZM35.4813 0H38.7713L40.7954 3.31625L42.8167 0H46.1067V9.43833H42.9654V4.76L40.7954 8.11708H40.74L38.5671 4.76292V9.43833H35.4813V0V0ZM47.6759 0H50.8346V6.32042H55.2679V9.44125H47.6759V0V0Z" fill="url(#paint0_linear_5_28)"/>
<path fill-rule="evenodd" clip-rule="evenodd" d="M14.7175 64.3767L8.75 13.7579H61.25L55.2796 64.3709L34.9708 70L14.7175 64.3767ZM26.7837 36.6683L26.2179 30.31H49.9742L50.5283 24.1034H19.4367L21.1108 42.8779H42.6271L41.9067 50.9279L34.9825 52.8004H34.9767L28.0642 50.9338L27.6208 45.9842H21.385L22.2542 55.7317L34.9708 59.2609L47.7079 55.7317L49.2596 38.3367L49.4113 36.6713H26.7837V36.6683Z" fill="url(#paint1_linear_5_28)"/>
<defs>
<linearGradient id="paint0_linear_5_28" x1="35.0423" y1="0" x2="35.0423" y2="9.44125" gradientUnits="userSpaceOnUse">
<stop stop-color="#DC2625"/>
<stop offset="1" stop-color="#F87315"/>
</linearGradient>
<linearGradient id="paint1_linear_5_28" x1="35" y1="13.7579" x2="35" y2="70" gradientUnits="userSpaceOnUse">
<stop stop-color="#DC2625"/>
<stop offset="1" stop-color="#F87315"/>
</linearGradient>
</defs>
</svg>
