<svg width="70" height="70" viewBox="0 0 70 70" fill="none" xmlns="http://www.w3.org/2000/svg">
<g clip-path="url(#clip0_5_33)">
<path d="M21.8809 0H29.4V3.14417H25.025V6.28833H29.4V9.4325H21.8809V0ZM30.9021 0H38.4242V2.73583H34.0492V3.28125H38.4242V9.56958H30.9021V6.69958H35.2771V6.15125H30.9021V0ZM39.9292 0H47.4454V2.73583H43.0704V3.28125H47.4454V9.56958H39.9292V6.69958H44.3042V6.15125H39.9292V0Z" fill="url(#paint0_linear_5_33)"/>
<path fill-rule="evenodd" clip-rule="evenodd" d="M34.9738 70L14.7204 64.3767L8.75 13.7579H61.25L55.2825 64.3709L34.9738 70ZM20.5538 36.6713L21.1108 42.8779H42.6271L41.9067 50.9279L34.9825 52.8004H34.9767L28.0642 50.9338L27.6208 45.9842H21.3879L22.2571 55.7317L34.9738 59.2609L47.7108 55.7317L49.2625 38.3367L49.4142 36.6713L50.5342 24.1034H19.4367L20.0025 30.3129H43.7325L43.1667 36.6713H20.5538V36.6713Z" fill="url(#paint1_linear_5_33)"/>
</g>
<defs>
<linearGradient id="paint0_linear_5_33" x1="34.6632" y1="0" x2="34.6632" y2="9.56958" gradientUnits="userSpaceOnUse">
<stop stop-color="#DC2625"/>
<stop offset="1" stop-color="#F87315"/>
</linearGradient>
<linearGradient id="paint1_linear_5_33" x1="35" y1="13.7579" x2="35" y2="70" gradientUnits="userSpaceOnUse">
<stop stop-color="#DC2625"/>
<stop offset="1" stop-color="#F87315"/>
</linearGradient>
<clipPath id="clip0_5_33">
<rect width="70" height="70" fill="white"/>
</clipPath>
</defs>
</svg>
