<svg width="70" height="70" viewBox="0 0 70 70" fill="none" xmlns="http://www.w3.org/2000/svg">
<g clip-path="url(#clip0_5_40)">
<path d="M55.2694 33.4819C55.2694 29.7719 53.935 27.2038 52.7931 25.2044L52.4431 24.6356C51.0563 22.4044 49.8444 20.4444 49.8444 18.1606C49.8444 15.4044 51.9356 12.8319 54.8844 12.8319C54.9719 12.8319 55.055 12.8406 55.1381 12.845L55.2738 12.8581C49.7445 7.77937 42.5078 4.96526 35 4.97439C30.0242 4.97183 25.1259 6.20736 20.7466 8.56963C16.3672 10.9319 12.6445 14.3467 9.91377 18.5063C10.6138 18.5281 11.2831 18.5456 11.8475 18.5456C14.9844 18.5456 19.845 18.165 19.845 18.165C21.4638 18.0688 21.6563 20.4444 20.0375 20.6369C20.0375 20.6369 18.4144 20.8294 16.6031 20.9213L27.5406 53.445L34.1031 33.7313L29.4219 20.9169C27.8075 20.8206 26.2763 20.6325 26.2763 20.6325C24.6575 20.5363 24.85 18.06 26.4644 18.1563C26.4644 18.1563 31.4256 18.5369 34.3744 18.5369C37.5156 18.5369 42.3806 18.1563 42.3806 18.1563C43.9994 18.06 44.1875 20.44 42.5688 20.6325C42.5688 20.6325 40.9413 20.8206 39.1344 20.9169L49.9844 53.1913L52.9769 43.1856L53.2131 42.4288C54.3944 38.6663 55.265 35.8881 55.265 33.4775L55.2694 33.4819ZM4.97439 35C4.97409 40.6383 6.56111 46.1627 9.55383 50.9412C12.5466 55.7196 16.8241 59.559 21.8969 62.02L7.56877 22.7763C5.85302 26.6228 4.96894 30.7882 4.97439 35V35Z" fill="url(#paint0_linear_5_40)"/>
<path d="M26.5169 63.8006L35.5294 37.625L44.7562 62.9125C44.8175 63.0569 44.8875 63.1925 44.9706 63.3238C39.0226 65.4193 32.5652 65.5861 26.5169 63.8006V63.8006ZM61.3419 20.5931C61.4731 21.5513 61.5475 22.575 61.5475 23.6819C61.5475 26.7269 60.9787 30.1525 59.2637 34.4356L50.0938 60.9481C56.8606 57.0166 61.8241 50.5973 63.9261 43.0588C66.0281 35.5203 65.1024 27.4589 61.3463 20.5931H61.3419Z" fill="url(#paint1_linear_5_40)"/>
<path fill-rule="evenodd" clip-rule="evenodd" d="M0 35C0 15.7019 15.7019 0 35 0C54.2937 0 70 15.7019 70 35C70 54.2981 54.2937 70 35 70C15.7019 70 0 54.2981 0 35ZM1.60563 35C1.60563 53.4144 16.5856 68.3944 35 68.3944C53.41 68.3944 68.39 53.4144 68.39 35C68.39 16.5812 53.41 1.60563 35 1.60563C16.5812 1.60563 1.60563 16.5812 1.60563 35Z" fill="url(#paint2_linear_5_40)"/>
</g>
<defs>
<linearGradient id="paint0_linear_5_40" x1="30.1241" y1="4.97437" x2="30.1241" y2="62.02" gradientUnits="userSpaceOnUse">
<stop stop-color="#DC2625"/>
<stop offset="1" stop-color="#F87315"/>
</linearGradient>
<linearGradient id="paint1_linear_5_40" x1="45.7729" y1="20.5931" x2="45.7729" y2="65.0276" gradientUnits="userSpaceOnUse">
<stop stop-color="#DC2625"/>
<stop offset="1" stop-color="#F87315"/>
</linearGradient>
<linearGradient id="paint2_linear_5_40" x1="35" y1="0" x2="35" y2="70" gradientUnits="userSpaceOnUse">
<stop stop-color="#DC2625"/>
<stop offset="1" stop-color="#F87315"/>
</linearGradient>
<clipPath id="clip0_5_40">
<rect width="70" height="70" fill="white"/>
</clipPath>
</defs>
</svg>
