<svg width="70" height="70" viewBox="0 0 70 70" fill="none" xmlns="http://www.w3.org/2000/svg">
<path d="M53.9583 27.7375C51.771 26.9841 49.8403 25.6296 48.3875 23.8292C46.7864 21.8232 44.7477 20.21 42.4273 19.113C40.1069 18.016 37.5664 17.4642 35 17.5C31.5477 17.2555 28.13 18.3203 25.4275 20.4823C22.725 22.6443 20.936 25.7449 20.4167 29.1667C21.4395 27.4553 22.9788 26.1125 24.8132 25.3316C26.6476 24.5507 28.6825 24.3718 30.625 24.8208C32.8087 25.5961 34.7363 26.9585 36.1958 28.7583C37.8057 30.7483 39.8483 32.3448 42.1682 33.4264C44.4881 34.508 47.0241 35.0462 49.5833 35C53.0356 35.2445 56.4533 34.1797 59.1558 32.0177C61.8583 29.8557 63.6474 26.7551 64.1667 23.3333C63.1624 25.0652 61.628 26.4282 59.7898 27.2212C57.9517 28.0143 55.9072 28.1953 53.9583 27.7375ZM16.0417 42.2625C18.229 43.0158 20.1598 44.3704 21.6125 46.1708C23.2136 48.1768 25.2523 49.79 27.5727 50.887C29.8931 51.984 32.4336 52.5357 35 52.5C38.4523 52.7445 41.87 51.6797 44.5725 49.5177C47.275 47.3557 49.0641 44.2551 49.5833 40.8333C48.5605 42.5447 47.0212 43.8875 45.1868 44.6684C43.3524 45.4493 41.3175 45.6282 39.375 45.1792C37.1913 44.4039 35.2637 43.0414 33.8042 41.2417C32.19 39.2566 30.1465 37.6636 27.8277 36.5825C25.5088 35.5013 22.9749 34.9603 20.4167 35C16.9644 34.7555 13.5467 35.8203 10.8442 37.9823C8.14167 40.1443 6.35263 43.2449 5.83334 46.6667C6.83757 44.9348 8.37203 43.5718 10.2102 42.7787C12.0484 41.9857 14.0928 41.8047 16.0417 42.2625Z" fill="url(#paint0_linear_5_38)"/>
<defs>
<linearGradient id="paint0_linear_5_38" x1="35" y1="17.4656" x2="35" y2="52.5344" gradientUnits="userSpaceOnUse">
<stop stop-color="#DC2625"/>
<stop offset="1" stop-color="#F87315"/>
</linearGradient>
</defs>
</svg>
