<svg width="70" height="70" viewBox="0 0 70 70" fill="none" xmlns="http://www.w3.org/2000/svg">
<g clip-path="url(#clip0_9_75)">
<path d="M70.0109 5.42283V2.33626C69.3884 2.33626 68.7914 2.08897 68.3512 1.64879C67.911 1.2086 67.6638 0.611588 67.6638 -0.0109253H64.5772C64.5511 0.594055 64.2924 1.16559 63.855 1.58443C63.4177 2.00328 62.8355 2.23709 62.23 2.23709C61.6245 2.23709 61.0423 2.00328 60.605 1.58443C60.1677 1.16559 59.9089 0.594055 59.8828 -0.0109253H56.7853C56.7487 0.611734 56.4664 1.19439 56.0004 1.60906C55.5345 2.02372 54.923 2.2365 54.3003 2.20064C53.7275 2.16279 53.1881 1.91727 52.7834 1.51012C52.3786 1.10296 52.1363 0.56214 52.1019 -0.0109253H49.0153C48.9825 0.612998 48.7036 1.19846 48.2399 1.61712C47.7761 2.03578 47.1653 2.25348 46.5413 2.22251C45.9595 2.19006 45.41 1.94433 44.998 1.53231C44.586 1.12028 44.3403 0.570862 44.3078 -0.0109253H41.2213C41.1951 0.594055 40.9364 1.16559 40.4991 1.58443C40.0618 2.00328 39.4796 2.23709 38.8741 2.23709C38.2685 2.23709 37.6864 2.00328 37.249 1.58443C36.8117 1.16559 36.553 0.594055 36.5269 -0.0109253H33.4403C33.4227 0.297584 33.3445 0.599594 33.21 0.877809C33.0755 1.15602 32.8875 1.40498 32.6566 1.61041C32.4258 1.81584 32.1567 1.97372 31.8648 2.075C31.5728 2.17628 31.2638 2.21898 30.9553 2.20064C30.3819 2.16085 29.8422 1.91507 29.4358 1.50863C29.0293 1.10218 28.7835 0.562491 28.7438 -0.0109253H25.6572C25.6496 0.296176 25.5812 0.598724 25.4559 0.879239C25.3307 1.15975 25.1512 1.41268 24.9276 1.6234C24.7041 1.83412 24.441 1.99845 24.1536 2.10692C23.8662 2.21538 23.5601 2.26582 23.2531 2.25532C22.6588 2.23365 22.0946 1.988 21.6739 1.56765C21.2531 1.14731 21.0069 0.583397 20.9847 -0.0109253H17.8981C17.8795 0.599471 17.6239 1.17863 17.1856 1.60381C16.7472 2.02898 16.1605 2.26677 15.5498 2.26677C14.9392 2.26677 14.3525 2.02898 13.9141 1.60381C13.4758 1.17863 13.2202 0.599471 13.2016 -0.0109253H10.115C10.0899 0.609946 9.82125 1.19594 9.36718 1.62012C8.91311 2.0443 8.3102 2.27252 7.68907 2.25532C7.09472 2.23365 6.53057 1.988 6.10982 1.56765C5.68907 1.14731 5.44287 0.583397 5.42063 -0.0109253H2.33407C2.33407 0.616887 2.0825 1.22064 1.64938 1.65157C1.20671 2.0894 0.609485 2.33536 -0.0131226 2.33626V5.42283C0.606989 5.4479 1.1921 5.71686 1.61489 6.1712C2.03768 6.62553 2.26392 7.22845 2.24438 7.84876C2.22641 8.44283 1.98313 9.00781 1.56389 9.42908C1.14465 9.85035 0.580847 10.0964 -0.0131226 10.1172V13.2038C0.294505 13.2145 0.596997 13.2858 0.877034 13.4136C1.15707 13.5413 1.40915 13.7231 1.61885 13.9485C1.82854 14.1738 1.99173 14.4383 2.09907 14.7268C2.2064 15.0153 2.25578 15.3221 2.24438 15.6297C2.22641 16.2238 1.98313 16.7887 1.56389 17.21C1.14465 17.6313 0.580847 17.8773 -0.0131226 17.8981V20.9847C0.60939 20.9847 1.20641 21.232 1.64659 21.6722C2.08677 22.1124 2.33407 22.7094 2.33407 23.3319C2.33407 23.9544 2.08677 24.5514 1.64659 24.9916C1.20641 25.4318 0.60939 25.6791 -0.0131226 25.6791V28.7656C0.300418 28.7561 0.612691 28.8095 0.905176 28.9229C1.19766 29.0363 1.4644 29.2072 1.68957 29.4256C1.91475 29.644 2.09377 29.9054 2.21602 30.1943C2.33828 30.4832 2.40127 30.7937 2.40127 31.1074C2.40127 31.421 2.33828 31.7315 2.21602 32.0204C2.09377 32.3093 1.91475 32.5707 1.68957 32.7891C1.4644 33.0075 1.19766 33.1784 0.905176 33.2918C0.612691 33.4052 0.300418 33.4587 -0.0131226 33.4491V36.5466C0.294505 36.5573 0.596997 36.6286 0.877034 36.7564C1.15707 36.8842 1.40915 37.0659 1.61885 37.2913C1.82854 37.5166 1.99173 37.7811 2.09907 38.0696C2.2064 38.3581 2.25578 38.6649 2.24438 38.9725C2.22575 39.5653 1.98193 40.1288 1.56254 40.5482C1.14314 40.9676 0.579697 41.2114 -0.0131226 41.23V44.3275C0.300418 44.3179 0.612691 44.3714 0.905176 44.4848C1.19766 44.5981 1.4644 44.7691 1.68957 44.9875C1.91475 45.2059 2.09377 45.4673 2.21602 45.7562C2.33828 46.045 2.40127 46.3555 2.40127 46.6692C2.40127 46.9829 2.33828 47.2934 2.21602 47.5823C2.09377 47.8712 1.91475 48.1326 1.68957 48.351C1.4644 48.5694 1.19766 48.7403 0.905176 48.8537C0.612691 48.9671 0.300418 49.0205 -0.0131226 49.0109V52.1084C0.293733 52.1186 0.595575 52.1892 0.875145 52.3161C1.15472 52.443 1.40653 52.6237 1.61619 52.848C1.82585 53.0723 1.98925 53.3357 2.09704 53.6232C2.20483 53.9107 2.2549 54.2166 2.24438 54.5234C2.22797 55.118 1.98518 55.6839 1.56562 56.1055C1.14605 56.5271 0.58136 56.7726 -0.0131226 56.7919V59.8784C0.597274 59.8971 1.17643 60.1527 1.60161 60.591C2.02679 61.0294 2.26457 61.616 2.26457 62.2267C2.26457 62.8374 2.02679 63.4241 1.60161 63.8624C1.17643 64.3008 0.597274 64.5564 -0.0131226 64.575V67.6725C1.27531 67.6725 2.33407 68.7203 2.33407 70.0088H5.42063C5.46169 69.3869 5.74728 68.8065 6.21498 68.3945C6.68268 67.9826 7.29445 67.7725 7.91656 67.8103C9.1 67.8891 10.0341 68.8253 10.115 70.0088H13.2016C13.2277 69.4038 13.4864 68.8323 13.9237 68.4134C14.361 67.9946 14.9432 67.7607 15.5488 67.7607C16.1543 67.7607 16.7365 67.9946 17.1738 68.4134C17.6111 68.8323 17.8698 69.4038 17.8959 70.0088H20.9825C21.0086 69.4038 21.2673 68.8323 21.7047 68.4134C22.142 67.9946 22.7241 67.7607 23.3297 67.7607C23.9352 67.7607 24.5174 67.9946 24.9547 68.4134C25.392 68.8323 25.6508 69.4038 25.6769 70.0088H28.7634C28.7908 69.3894 29.0604 68.8057 29.5142 68.3833C29.9681 67.961 30.5697 67.734 31.1894 67.7513C31.7819 67.7738 32.3443 68.0186 32.7646 68.4368C33.1849 68.8551 33.4324 69.4163 33.4578 70.0088H36.5444C36.5794 69.3866 36.8593 68.8036 37.3229 68.3871C37.7865 67.9707 38.3961 67.7546 39.0184 67.7863C40.215 67.8453 41.1819 68.8122 41.2409 70.0088H44.3275C44.3625 69.3866 44.6424 68.8036 45.106 68.3871C45.5696 67.9707 46.1792 67.7546 46.8016 67.7863C47.9981 67.8453 48.965 68.8122 49.0241 70.0088H52.1106C52.1513 69.4125 52.4169 68.854 52.8536 68.446C53.2903 68.0381 53.8657 67.8111 54.4633 67.8111C55.0609 67.8111 55.6362 68.0381 56.073 68.446C56.5097 68.854 56.7753 69.4125 56.8159 70.0088H59.9047C59.9364 69.4091 60.197 68.8445 60.6327 68.4313C61.0684 68.0181 61.6459 67.7878 62.2464 67.7878C62.8469 67.7878 63.4245 68.0181 63.8601 68.4313C64.2958 68.8445 64.5564 69.4091 64.5881 70.0088H67.6616C67.6645 69.3882 67.913 68.7939 68.3529 68.3561C68.7928 67.9183 69.3881 67.6725 70.0088 67.6725V64.575C69.3869 64.5361 68.8057 64.2532 68.3915 63.7877C67.9773 63.3223 67.7637 62.7121 67.7972 62.09C67.835 61.5172 68.0806 60.9778 68.4877 60.5731C68.8949 60.1683 69.4357 59.926 70.0088 59.8916V56.805C69.4038 56.7789 68.8322 56.5202 68.4134 56.0829C67.9946 55.6455 67.7607 55.0634 67.7607 54.4578C67.7607 53.8523 67.9946 53.2701 68.4134 52.8328C68.8322 52.3955 69.4038 52.1368 70.0088 52.1106V49.0131C69.3874 48.9731 68.8068 48.6898 68.3928 48.2247C67.9788 47.7595 67.7648 47.15 67.7972 46.5281C67.835 45.9553 68.0806 45.4159 68.4877 45.0112C68.8949 44.6064 69.4357 44.3641 70.0088 44.3297V41.2322C69.7002 41.2182 69.3975 41.1433 69.118 41.0119C68.8385 40.8804 68.5877 40.695 68.3802 40.4663C68.1726 40.2376 68.0123 39.9701 67.9085 39.6792C67.8047 39.3883 67.7594 39.0797 67.7753 38.7713C67.8078 38.1895 68.0535 37.6401 68.4655 37.228C68.8775 36.816 69.427 36.5703 70.0088 36.5378V33.4644C69.3858 33.4233 68.8041 33.1381 68.3901 32.6709C67.9761 32.2036 67.763 31.5918 67.7972 30.9684C67.835 30.3956 68.0806 29.8562 68.4877 29.4515C68.8949 29.0468 69.4357 28.8044 70.0088 28.77V25.6835C69.4038 25.6573 68.8322 25.3986 68.4134 24.9613C67.9946 24.524 67.7607 23.9418 67.7607 23.3363C67.7607 22.7307 67.9946 22.1486 68.4134 21.7112C68.8322 21.2739 69.4038 21.0152 70.0088 20.9891V17.9025C69.3858 17.8614 68.8041 17.5763 68.3901 17.109C67.9761 16.6417 67.763 16.03 67.7972 15.4066C67.8387 14.835 68.0853 14.2977 68.4918 13.8937C68.8982 13.4897 69.437 13.2462 70.0088 13.2081V10.1216C69.3868 10.0898 68.8027 9.81316 68.3842 9.352C67.9657 8.89085 67.7468 8.28274 67.7753 7.66064C67.8059 7.0782 68.051 6.52769 68.4634 6.11528C68.8758 5.70287 69.4263 5.45775 70.0088 5.4272L70.0109 5.42283ZM58.1416 34.1228L39.4669 52.2856C41.1534 52.5481 42.7941 52.9331 44.5484 52.9331C48.8206 52.9331 53.7338 51.6359 57.05 50.2666L55.3525 58.275C50.4634 60.6222 47.4666 60.8191 44.5484 60.8191C41.3481 60.8191 38.2944 59.7691 35.175 59.7691C33.4075 59.7691 30.8678 59.9069 29.3059 60.9438L25.9219 54.95L45.1872 35.8772H23.0169L18.7884 55.7222H9.53969L19.1756 10.2856H49.7766L47.8188 19.4578H26.5366L24.7144 27.9913H59.6444L58.1416 34.1228Z" fill="url(#paint0_linear_9_75)"/>
</g>
<defs>
<linearGradient id="paint0_linear_9_75" x1="34.9989" y1="-0.0109253" x2="34.9989" y2="70.0088" gradientUnits="userSpaceOnUse">
<stop stop-color="#DC2625"/>
<stop offset="1" stop-color="#F87315"/>
</linearGradient>
<clipPath id="clip0_9_75">
<rect width="70" height="70" fill="white"/>
</clipPath>
</defs>
</svg>
