<svg width="70" height="70" viewBox="0 0 70 70" fill="none" xmlns="http://www.w3.org/2000/svg">
<g clip-path="url(#clip0_9_73)">
<path d="M67.5172 7.54251L53.1169 0.614696C52.3024 0.220125 51.3852 0.0892048 50.4929 0.240147C49.6006 0.391089 48.7775 0.816389 48.1381 1.45688L20.5559 26.6241L8.53561 17.5088C7.99426 17.0949 7.32482 16.8842 6.64401 16.9134C5.96321 16.9425 5.31425 17.2098 4.8103 17.6684L0.960301 21.1772C0.659384 21.4491 0.418649 21.781 0.253548 22.1514C0.0884462 22.5219 0.00262622 22.9228 0.0015963 23.3284C0.000566372 23.734 0.0843492 24.1353 0.247567 24.5066C0.410785 24.8779 0.649832 25.2109 0.949364 25.4844L11.375 34.9978L0.949364 44.5113C0.649832 44.7847 0.410785 45.1178 0.247567 45.4891C0.0843492 45.8604 0.000566372 46.2617 0.0015963 46.6673C0.00262622 47.0729 0.0884462 47.4737 0.253548 47.8442C0.418649 48.2147 0.659384 48.5465 0.960301 48.8184L4.8103 52.3272C5.31425 52.7859 5.96321 53.0531 6.64401 53.0823C7.32482 53.1115 7.99426 52.9007 8.53561 52.4869L20.5559 43.3606L48.1512 68.5388C48.7884 69.1792 49.6096 69.6046 50.5002 69.7556C51.3909 69.9066 52.3065 69.7756 53.1191 69.3809L67.5325 62.4422C68.2747 62.0856 68.9008 61.5262 69.3382 60.8286C69.7757 60.131 70.0066 59.3237 70.0044 58.5003V11.48C70.0044 9.80438 69.0353 8.26657 67.5216 7.53813L67.5172 7.54251ZM52.5109 50.8944L31.57 35L52.5109 19.1056V50.8944Z" fill="url(#paint0_linear_9_73)"/>
</g>
<defs>
<linearGradient id="paint0_linear_9_73" x1="35.003" y1="0.179169" x2="35.003" y2="69.8166" gradientUnits="userSpaceOnUse">
<stop stop-color="#DC2625"/>
<stop offset="1" stop-color="#F87315"/>
</linearGradient>
<clipPath id="clip0_9_73">
<rect width="70" height="70" fill="white"/>
</clipPath>
</defs>
</svg>
