<svg width="70" height="70" viewBox="0 0 70 70" fill="none" xmlns="http://www.w3.org/2000/svg">
<path d="M24.7917 5.83334C22.471 5.83334 20.2454 6.75522 18.6045 8.39616C16.9635 10.0371 16.0417 12.2627 16.0417 14.5833C16.0417 16.904 16.9635 19.1296 18.6045 20.7705C20.2454 22.4115 22.471 23.3333 24.7917 23.3333H45.2083C47.529 23.3333 49.7546 22.4115 51.3955 20.7705C53.0365 19.1296 53.9583 16.904 53.9583 14.5833C53.9583 12.2627 53.0365 10.0371 51.3955 8.39616C49.7546 6.75522 47.529 5.83334 45.2083 5.83334H24.7917ZM45.2083 26.25C42.8877 26.25 40.6621 27.1719 39.0211 28.8128C37.3802 30.4538 36.4583 32.6794 36.4583 35C36.4583 37.3207 37.3802 39.5463 39.0211 41.1872C40.6621 42.8281 42.8877 43.75 45.2083 43.75C47.529 43.75 49.7546 42.8281 51.3955 41.1872C53.0365 39.5463 53.9583 37.3207 53.9583 35C53.9583 32.6794 53.0365 30.4538 51.3955 28.8128C49.7546 27.1719 47.529 26.25 45.2083 26.25V26.25ZM16.0417 35C16.0417 32.6794 16.9635 30.4538 18.6045 28.8128C20.2454 27.1719 22.471 26.25 24.7917 26.25H33.5417V43.75H24.7917C22.471 43.75 20.2454 42.8281 18.6045 41.1872C16.9635 39.5463 16.0417 37.3207 16.0417 35ZM24.7917 46.6667C23.0611 46.6667 21.3693 47.1799 19.9304 48.1413C18.4915 49.1028 17.37 50.4693 16.7077 52.0682C16.0454 53.6671 15.8722 55.4264 16.2098 57.1237C16.5474 58.8211 17.3808 60.3802 18.6045 61.6039C19.8282 62.8276 21.3873 63.6609 23.0846 63.9986C24.782 64.3362 26.5413 64.1629 28.1401 63.5006C29.739 62.8384 31.1056 61.7168 32.067 60.2779C33.0285 58.839 33.5417 57.1473 33.5417 55.4167V46.6667H24.7917Z" fill="url(#paint0_linear_5_23)"/>
<defs>
<linearGradient id="paint0_linear_5_23" x1="35" y1="5.83334" x2="35" y2="64.1667" gradientUnits="userSpaceOnUse">
<stop stop-color="#DC2625"/>
<stop offset="1" stop-color="#F87315"/>
</linearGradient>
</defs>
</svg>
