<svg width="70" height="70" viewBox="0 0 70 70" fill="none" xmlns="http://www.w3.org/2000/svg">
<path fill-rule="evenodd" clip-rule="evenodd" d="M2.91675 8.2775C2.91675 6.85572 3.48155 5.49217 4.4869 4.48682C5.49225 3.48146 6.8558 2.91666 8.27758 2.91666H61.7167C62.4213 2.91551 63.1192 3.05335 63.7705 3.32227C64.4217 3.5912 65.0136 3.98594 65.5121 4.48389C66.0106 4.98185 66.4059 5.57323 66.6756 6.22419C66.9452 6.87515 67.0838 7.5729 67.0834 8.2775V61.7167C67.0842 62.4214 66.946 63.1194 66.6767 63.7706C66.4075 64.4219 66.0125 65.0137 65.5143 65.5121C65.0161 66.0106 64.4245 66.4059 63.7734 66.6755C63.1223 66.9451 62.4244 67.0837 61.7197 67.0833H8.27758C7.57334 67.0833 6.876 66.9446 6.22541 66.675C5.57481 66.4054 4.98371 66.0103 4.48587 65.5121C3.98803 65.014 3.59322 64.4227 3.32398 63.772C3.05475 63.1212 2.91637 62.4238 2.91675 61.7196V8.2775ZM28.3151 27.3817H37.0038V31.745C38.258 29.2367 41.4663 26.9792 46.2876 26.9792C55.5305 26.9792 57.7209 31.9754 57.7209 41.1425V58.1233H48.3672V43.2308C48.3672 38.01 47.113 35.0642 43.928 35.0642C39.5092 35.0642 37.6718 38.2404 37.6718 43.2308V58.1233H28.3151V27.3817ZM12.2734 57.7237H21.6301V26.9792H12.2734V57.7208V57.7237ZM22.9688 16.9517C22.9865 17.7528 22.8439 18.5494 22.5495 19.2947C22.2551 20.04 21.8149 20.7189 21.2545 21.2918C20.6942 21.8646 20.025 22.3197 19.2864 22.6304C18.5478 22.9412 17.7545 23.1012 16.9532 23.1012C16.1519 23.1012 15.3586 22.9412 14.62 22.6304C13.8814 22.3197 13.2123 21.8646 12.6519 21.2918C12.0916 20.7189 11.6513 20.04 11.3569 19.2947C11.0625 18.5494 10.9199 17.7528 10.9376 16.9517C10.9722 15.3792 11.6212 13.8827 12.7456 12.7828C13.87 11.6829 15.3803 11.067 16.9532 11.067C18.5261 11.067 20.0365 11.6829 21.1608 12.7828C22.2852 13.8827 22.9342 15.3792 22.9688 16.9517V16.9517Z" fill="url(#paint0_linear_32_8)"/>
<defs>
<linearGradient id="paint0_linear_32_8" x1="35.0001" y1="2.91666" x2="35.0001" y2="67.0833" gradientUnits="userSpaceOnUse">
<stop stop-color="#DC2625"/>
<stop offset="1" stop-color="#F87315"/>
</linearGradient>
</defs>
</svg>
