<svg width="70" height="70" viewBox="0 0 70 70" fill="none" xmlns="http://www.w3.org/2000/svg">
<path d="M64.1666 25.1067V48.8542C64.1667 51.2754 63.2404 53.6049 61.5775 55.3648C59.9147 57.1248 57.6414 58.1817 55.2241 58.3188L54.6874 58.3333H15.3124C12.8912 58.3335 10.5617 57.4071 8.80174 55.7443C7.04182 54.0815 5.98491 51.8082 5.84784 49.3908L5.83325 48.8542V25.1067L33.9849 39.8533C34.2981 40.0174 34.6464 40.1031 34.9999 40.1031C35.3535 40.1031 35.7017 40.0174 36.0149 39.8533L64.1666 25.1067ZM15.3124 11.6667H54.6874C57.037 11.6664 59.303 12.5387 61.0459 14.1145C62.7887 15.6903 63.8842 17.8572 64.1199 20.195L34.9999 35.4492L5.87992 20.195C6.10603 17.9501 7.12548 15.8594 8.75502 14.2989C10.3846 12.7383 12.5173 11.8101 14.7699 11.6813L15.3124 11.6667H54.6874H15.3124Z" fill="url(#paint0_linear_32_10)"/>
<defs>
<linearGradient id="paint0_linear_32_10" x1="34.9999" y1="11.6667" x2="34.9999" y2="58.3333" gradientUnits="userSpaceOnUse">
<stop stop-color="#DC2625"/>
<stop offset="1" stop-color="#F87315"/>
</linearGradient>
</defs>
</svg>
